<?xml version="1.0" standalone="no"?>
<!DOCTYPE svg PUBLIC "-//W3C//DTD SVG 1.1//EN" "http://www.w3.org/Graphics/SVG/1.1/DTD/svg11.dtd">
<svg xmlns="http://www.w3.org/2000/svg">
<defs >
<font id="ArchivoNarrow" horiz-adv-x="471" ><font-face
    font-family="Archivo Narrow Medium"
    units-per-em="1000"
    panose-1="0 0 0 0 0 0 0 0 0 0"
    ascent="1035"
    descent="-312"
    alphabetic="0" />
<glyph unicode=" " horiz-adv-x="228" />
<glyph unicode="!" horiz-adv-x="242" d="M83 179L126 686H252L151 179H83ZM37 0L53 117H165L149 0H37Z" />
<glyph unicode="&quot;" horiz-adv-x="322" d="M228 407L226 539L247 686H342L321 539L280 407H228ZM81 407L78 539L99 686H193L172 539L132 407H81Z" />
<glyph unicode="#" horiz-adv-x="456" d="M41 0L82 184H19V263H100L133 413H58V492H151L197 697H276L230 492H316L362 697H441L395 492H456V413H378L345 263H416V184H327L286 0H206L247 184H162L121 0H41ZM180 263H265L298 413H213L180 263Z" />
<glyph unicode="$" horiz-adv-x="456" d="M164 -50L181 71Q121 81 83 121T45 221Q45 232 46 242T48 258H140Q139 253 138 245T137 228Q137 196 152 177T192 151L215 316Q187 331 159 348T112 393T94 465Q94 508 113 541T170 595T258 617L273 723H321L306 615Q352
608 379 584T419 525T431 452H340Q340 487 328 506T295 534L274 386Q306 372 336 355T386 309T406 233Q406 179 383 143T320 88T228 68L212 -50H164ZM239 145Q271 148 292 167T313 216Q313 243 298 260T260 292L239 145ZM228 411L247 539Q224 535 205 519T186 477Q186
454 198 438T228 411Z" />
<glyph unicode="%" horiz-adv-x="729" d="M83 0L598 686H674L158 0H83ZM532 -12Q477 -12 445 14T413 110Q413 201 434 253T490 327T565 349Q621 349 652 323T684 227Q684 191 678 150T655 72T610 12T532 -12ZM532 51Q566 51 581 82T603 161Q607 185 608 199T609
223Q609 251 599 268T565 286Q531 286 516 255T494 176Q490 152 489 139T488 114Q488 85 497 68T532 51ZM191 337Q136 337 104 363T71 459Q71 550 92 602T149 676T224 698Q280 698 311 672T342 576Q342 540 336 499T314 421T269 361T191 337ZM191 400Q225 400 240
431T262 510Q266 534 267 548T268 572Q268 600 258 617T224 635Q189 635 175 604T152 525Q148 501 147 488T146 463Q146 434 156 417T191 400Z" />
<glyph unicode="&amp;" horiz-adv-x="561" d="M390 0L203 355Q178 402 170 439T161 507Q161 560 181 603T240 672T335 698Q375 698 406 682T454 637T472 566Q472 514 446 468T377 389T278 339L251 412Q289 420 317 440T362 491T379 558Q379 586 364 602T327 618Q288
618 270 587T252 513Q252 483 259 453T282 400L495 0H390ZM190 -13Q140 -13 103 8T45 66T25 153Q25 208 47 258T112 346T217 403L246 328Q206 319 178 294T135 234T120 163Q120 119 141 94T203 69Q248 69 297 98T387 190T449 349H536Q516 256 479 188T393 75T292
9T190 -13Z" />
<glyph unicode="&apos;" horiz-adv-x="169" d="M81 407L78 539L99 686H193L172 539L132 407H81Z" />
<glyph unicode="(" horiz-adv-x="273" d="M137 -157Q33 -7 33 190Q33 214 34 238T40 288Q57 411 115 527T262 735H324Q268 659 224 568T153 379T127 187Q127 94 147 4T199 -157H137Z" />
<glyph unicode=")" horiz-adv-x="273" d="M-47 -157Q8 -81 53 10T124 199T151 391Q151 485 131 574T77 735H139Q190 662 216 573T243 387Q243 363 241 338T236 289Q219 166 162 51T14 -157H-47Z" />
<glyph unicode="*" horiz-adv-x="319" d="M149 407L171 500L86 446L59 507L150 547L71 587L115 647L184 593L188 686H259L237 594L321 647L349 587L258 547L337 507L293 446L223 500L220 407H149Z" />
<glyph unicode="+" horiz-adv-x="479" d="M158 0L187 210H33L45 300H199L229 511H318L289 300H444L432 210H277L247 0H158Z" />
<glyph unicode="," horiz-adv-x="228" d="M10 -134L68 0H30L46 117H158L143 10L71 -134H10Z" />
<glyph unicode="-" horiz-adv-x="273" d="M6 218L20 322H269L255 218H6Z" />
<glyph unicode="." horiz-adv-x="228" d="M31 0L47 117H159L143 0H31Z" />
<glyph unicode="/" horiz-adv-x="228" d="M-45 -49L217 735H292L29 -49H-45Z" />
<glyph unicode="0" horiz-adv-x="456" d="M199 -12Q149 -12 113 6T56 70T36 195Q36 257 48 343Q67 483 98 560T175 667T278 698Q329 698 365 680T421 615T441 488Q441 457 438 421T429 343Q410 204 378 127T302 19T199 -12ZM200 70Q238 70 262 99T302 181T328
308Q335 365 339 400T345 457T347 495Q347 552 332 584T277 616Q240 616 215 587T175 505T149 378Q143 333 138 300T131 241T129 193Q129 136 144 103T200 70Z" />
<glyph unicode="1" horiz-adv-x="456" d="M1 0L13 82H173L238 551H78L86 612Q115 615 154 625T234 651T311 686H351L266 82H413L401 0H1Z" />
<glyph unicode="2" horiz-adv-x="456" d="M6 0L8 16Q15 62 34 102T84 177Q114 214 150 248T223 317T289 386T337 459T356 539Q356 567 341 590T284 613Q236 613 211 577T179 491L174 450H78Q78 517 102 573T173 664T292 698Q362 698 408 664T456 553Q456 497 435
448T380 355T306 273T229 199T162 128Q155 119 149 110T137 93H396L383 0H6Z" />
<glyph unicode="3" horiz-adv-x="456" d="M204 -12Q115 -12 70 32T24 153Q24 163 25 174T28 205H124Q121 186 121 176T120 159Q120 116 141 93T203 70Q234 70 260 85T301 134T317 220Q317 271 291 289T229 308H179L191 389H242Q268 389 293 405T333 453T349 534Q349
577 329 596T279 616Q241 616 214 587T176 489H80Q85 556 114 602T187 673T283 698Q359 698 403 659T448 546Q448 468 415 425T334 356V352Q369 338 391 306T414 220Q414 149 386 97T309 16T204 -12Z" />
<glyph unicode="4" horiz-adv-x="456" d="M243 0L266 165H8L20 246Q64 311 107 386T189 541T258 698H353Q329 630 294 559T222 425T153 314T104 246H277L304 433Q319 458 331 483T354 534T375 586H419L371 246H441L430 165H360L336 0H243Z" />
<glyph unicode="5" horiz-adv-x="456" d="M202 -12Q120 -12 73 35T26 165Q26 176 27 188T30 213H127Q124 195 124 178Q124 127 146 98T205 69Q233 69 261 90T307 154T326 261Q326 311 306 337T252 364Q221 364 195 344T149 292L62 306L138 686H456L443 593H207L167
399Q185 414 214 430T284 446Q345 446 384 405T424 279Q424 187 394 122T314 22T202 -12Z" />
<glyph unicode="6" horiz-adv-x="456" d="M211 -12Q159 -12 121 8T63 74T42 199Q42 225 44 256T52 323Q71 466 104 548T184 664T290 698Q370 698 405 652T440 532Q440 519 439 505T436 475H341Q343 489 344 501T345 525Q345 569 331 592T285 616Q246 616 222 586T182
501T154 369Q179 398 211 414T279 431Q352 431 386 384T421 262Q421 179 392 117T316 22T211 -12ZM207 70Q240 70 262 88T298 135T317 194T324 249Q324 293 307 322T250 351Q215 351 190 326T150 261T136 171Q136 127 153 99T207 70Z" />
<glyph unicode="7" horiz-adv-x="456" d="M82 0Q94 87 123 170T192 330T276 473T364 593H83L96 686H491L482 624Q440 572 395 507T309 367T239 213T197 51Q195 37 194 28T191 0H82Z" />
<glyph unicode="8" horiz-adv-x="456" d="M197 -12Q105 -12 65 33T24 147Q24 189 36 228T73 301T138 352Q110 372 97 403T83 471Q83 532 106 583T174 666T282 698Q337 698 372 677T424 620T441 541Q441 485 416 433T343 352Q378 333 394 300T410 225Q410 162 387
108T317 21T197 -12ZM201 70Q252 70 283 110T314 220Q314 263 294 286T235 310Q197 310 172 289T135 233T122 159Q122 116 142 93T201 70ZM247 391Q288 391 317 429T347 533Q347 573 329 594T278 616Q245 616 223 595T189 542T177 476Q177 436 195 414T247 391Z"
/>
<glyph unicode="9" horiz-adv-x="456" d="M194 -12Q115 -12 80 34T44 154Q44 168 45 182T48 211H143Q142 198 141 185T139 161Q139 117 153 94T199 70Q238 70 262 100T302 185T330 317Q306 288 274 272T205 255Q133 255 98 303T63 424Q63 507 92 569T169 664T273
698Q326 698 363 678T421 612T442 487Q442 461 440 430T432 363Q413 220 380 138T300 22T194 -12ZM234 335Q270 335 295 360T334 426T348 515Q348 559 331 587T277 616Q244 616 222 598T186 551T167 492T160 437Q160 393 178 364T234 335Z" />
<glyph unicode=":" horiz-adv-x="242" d="M89 409L106 526H218L201 409H89ZM32 0L48 117H160L144 0H32Z" />
<glyph unicode=";" horiz-adv-x="242" d="M14 -134L72 0H33L49 117H161L146 10L74 -134H14ZM91 409L107 526H219L203 409H91Z" />
<glyph unicode="&lt;" horiz-adv-x="479" d="M403 0L33 199L48 312L475 513L461 414L128 256L416 99L403 0Z" />
<glyph unicode="=" horiz-adv-x="479" d="M48 315L60 405H459L446 315H48ZM18 103L30 192H429L417 103H18Z" />
<glyph unicode="&gt;" horiz-adv-x="479" d="M5 0L18 99L352 256L63 414L76 513L446 312L431 199L5 0Z" />
<glyph unicode="?" horiz-adv-x="470" d="M177 185L184 237Q190 277 208 305T249 356T295 402T332 456T347 529Q347 546 342 565T322 598T276 612Q247 612 228 599T196 565T178 523T170 484T168 459H68Q68 523 93 577T167 664T286 698Q362 698 407 657T453 548Q453
490 437 451T398 383T349 332T305 283T281 222L276 185H177ZM144 0L161 117H273L256 0H144Z" />
<glyph unicode="@" horiz-adv-x="822" d="M400 -154Q291 -154 212 -119T90 -6T48 194Q48 359 99 471T246 641T470 698Q572 698 635 674T733 606T781 502T794 369Q794 308 782 247T743 135T676 53T575 22Q541 22 520 33T488 59T472 87Q453 54 424 38T367 22Q312
22 278 64T243 196Q243 308 270 379T340 486T426 521Q461 521 486 504T525 447L543 510H609Q609 509 605 485T595 421T583 338T570 251T560 179T556 141Q556 113 569 104T600 94Q621 94 641 108T677 147Q695 173 707 208T725 284T732 368Q732 414 727 453T707 524Q682
581 629 610T487 640Q407 640 338 616T218 540T138 404T109 196Q109 87 146 23T246 -68T391 -96Q459 -96 491 -86T523 -76L515 -136Q507 -139 473 -146T400 -154ZM391 97Q416 97 434 115T465 164T485 229T496 295T499 348Q499 396 485 421T440 446Q413 446 394
428T363 379T343 315T332 249T329 196Q329 147 345 122T391 97Z" />
<glyph unicode="A" horiz-adv-x="561" d="M-36 0L278 686H402L524 0H420L396 147H130L64 0H-36ZM171 238H381L336 506Q334 523 333 545T330 583T329 600H325Q325 600 320 583T306 544T291 506L171 238Z" />
<glyph unicode="B" horiz-adv-x="561" d="M32 0L129 686H384Q459 686 505 646T551 539Q551 494 533 458T486 397T423 360L422 356Q465 341 492 302T520 205Q520 142 489 96T408 25T304 0H32ZM145 91H302Q332 91 358 104T401 145T417 210Q417 250 392 278T319 306H175L145
91ZM188 396H324Q361 396 388 413T429 456T444 513Q444 555 419 575T352 595H216L188 396Z" />
<glyph unicode="C" horiz-adv-x="592" d="M285 -12Q176 -12 113 50T49 244Q49 301 58 363T89 485T145 593T231 669T353 698Q460 698 518 637T576 450V435H473V456Q473 530 443 569T352 608Q309 608 277 588T223 536T187 463T165 383T154 307T151 249Q151 167 185
123T284 79Q333 79 367 102T422 163T450 246H549Q538 177 505 118T418 24T285 -12Z" />
<glyph unicode="D" horiz-adv-x="592" d="M32 0L129 686H334Q445 686 506 622T567 428Q567 374 557 315T525 199T467 98T382 27T265 0H32ZM146 91H254Q304 91 340 112T400 169T438 249T458 339T464 425Q464 510 427 552T322 595H216L146 91Z" />
<glyph unicode="E" horiz-adv-x="547" d="M32 0L129 686H555L541 595H216L188 396H470L457 306H175L145 91H477L464 0H32Z" />
<glyph unicode="F" horiz-adv-x="501" d="M32 0L129 686H526L513 595H216L187 389H446L434 298H174L132 0H32Z" />
<glyph unicode="G" horiz-adv-x="638" d="M280 -12Q173 -12 111 50T48 244Q48 300 58 362T90 484T149 592T239 669T365 698Q479 698 540 637T601 450H498V458Q498 532 465 570T366 608Q310 608 272 581T210 511T173 419T156 324T151 249Q151 167 186 123T294 79Q348
79 384 102T443 163T472 249L483 315L519 275H305L317 362H590L539 0H473L464 76Q432 36 386 12T280 -12Z" />
<glyph unicode="H" horiz-adv-x="592" d="M31 0L127 686H228L187 396H443L484 686H584L488 0H387L431 306H174L131 0H31Z" />
<glyph unicode="I" horiz-adv-x="228" d="M29 0L126 686H226L129 0H29Z" />
<glyph unicode="J" horiz-adv-x="425" d="M163 -12Q85 -12 43 23T0 126Q0 132 0 139T3 164T9 211H107Q101 170 100 159T99 144Q99 78 165 78Q201 78 222 100T248 163L322 686H423L349 163Q337 78 289 33T163 -12Z" />
<glyph unicode="K" horiz-adv-x="561" d="M32 0L129 686H229L179 335L487 686H606L361 408L516 0H404L287 326L161 201L133 0H32Z" />
<glyph unicode="L" horiz-adv-x="470" d="M32 0L129 686H229L146 93H428L415 0H32Z" />
<glyph unicode="M" horiz-adv-x="683" d="M23 0L120 686H266L315 259Q317 242 318 219T320 172T321 134T322 118H326Q326 118 330 134T340 173T353 220T366 260L536 686H683L586 0H489L556 479Q557 488 560 503T565 534T570 561T573 572H569Q567 567 561 550T548
513T536 480L344 0H256L200 480Q199 491 198 510T195 548T193 572H189Q189 572 188 561T185 533T182 502T179 479L111 0H23Z" />
<glyph unicode="N" horiz-adv-x="592" d="M31 0L128 686H213L396 272Q401 260 408 240T420 205T425 189L428 190Q428 190 429 206T433 241T437 270L495 686H585L488 0H405L221 418Q216 431 209 450T196 486T191 502L188 500Q188 500 187 485T184 451T180 420L121 0H31Z" />
<glyph unicode="O" horiz-adv-x="638" d="M292 -12Q177 -12 113 52T49 248Q49 306 59 368T92 490T151 596T242 670T367 698Q483 698 547 633T611 436Q611 378 601 316T567 195T507 90T417 16T292 -12ZM291 78Q343 78 380 101T442 163T481 249T501 344T507 435Q507
520 471 564T368 608Q316 608 279 585T217 524T178 438T158 343T152 251Q152 165 188 122T291 78Z" />
<glyph unicode="P" horiz-adv-x="547" d="M32 0L129 686H364Q460 686 507 637T554 511Q554 439 524 387T443 306T323 278H171L132 0H32ZM185 368H327Q380 368 414 402T449 494Q449 540 425 567T354 595H216L185 368Z" />
<glyph unicode="Q" horiz-adv-x="638" d="M394 -124L296 -12Q174 -12 112 53T49 248Q49 306 59 368T92 490T151 596T242 670T367 698Q483 698 547 633T611 436Q611 376 600 311T564 185T499 79T399 8L518 -124H394ZM291 78Q343 78 380 101T442 163T481 249T501
344T507 435Q507 520 471 564T368 608Q316 608 279 585T217 524T178 438T158 343T151 251Q151 165 187 122T291 78Z" />
<glyph unicode="R" horiz-adv-x="592" d="M32 0L129 686H396Q494 686 539 641T585 524Q585 448 546 394T441 316L533 0H426L341 298H174L132 0H32ZM187 388H350Q406 388 442 421T479 509Q479 549 455 572T381 595H216L187 388Z" />
<glyph unicode="S" horiz-adv-x="547" d="M252 -12Q207 -12 167 0T97 36T49 97T32 183Q32 196 33 209T36 234H140Q138 223 137 212T135 186Q135 153 148 129T190 91T259 78Q282 78 305 84T347 103T379 137T391 189Q391 226 370 249T315 290T244 324T173 361T118
416T96 499Q96 557 120 602T194 673T315 698Q397 698 443 670T508 593T528 485H425Q425 533 409 560T366 597T310 608Q298 608 280 605T244 593T214 564T201 513Q201 479 222 458T277 421T348 390T419 352T474 295T496 206Q496 166 483 127T440 57T365 7T252 -12Z"
/>
<glyph unicode="T" horiz-adv-x="501" d="M162 0L245 595H64L77 686H540L527 595H345L262 0H162Z" />
<glyph unicode="U" horiz-adv-x="592" d="M270 -12Q169 -12 114 35T58 174Q58 184 61 216T71 295T84 395T99 499T113 592T123 660T127 686H227Q227 686 224 661T214 593T201 499T187 395T173 299T163 225T159 189Q159 135 188 107T271 78Q331 78 369 114T418 221L483
686H583L518 223Q502 108 437 48T270 -12Z" />
<glyph unicode="V" horiz-adv-x="547" d="M183 0L72 686H175L260 128H264L505 686H606L301 0H183Z" />
<glyph unicode="W" horiz-adv-x="774" d="M132 0L74 686H175L207 229Q208 210 208 185T210 140T211 115H215Q215 115 219 133T231 177T246 228L389 686H521L539 228Q539 216 539 199T540 164T540 132T541 115H545Q545 115 550 134T563 181T579 228L740 686H831L582
0H461L441 455Q440 483 440 515T438 581H433Q433 581 430 568T421 534T411 493T400 456L253 0H132Z" />
<glyph unicode="X" horiz-adv-x="547" d="M-30 0L233 359L85 686H197L303 452H305L472 686H584L345 360L508 0H396L276 267H274L80 0H-30Z" />
<glyph unicode="Y" horiz-adv-x="547" d="M190 0L229 276L69 686H176L293 373H297L500 686H603L329 276L290 0H190Z" />
<glyph unicode="Z" horiz-adv-x="501" d="M-15 0L-11 41L371 595H86L99 686H527L524 644L140 91H454L440 0H-15Z" />
<glyph unicode="[" horiz-adv-x="242" d="M-11 -161L113 735H285L275 661H192L87 -87H170L160 -161H-11Z" />
<glyph unicode="\" horiz-adv-x="228" d="M144 -49L52 735H125L218 -49H144Z" />
<glyph unicode="]" horiz-adv-x="242" d="M-37 -161L-27 -87H55L160 661H77L87 735H259L134 -161H-37Z" />
<glyph unicode="^" horiz-adv-x="415" d="M7 294L204 686H311L399 294H303L244 595L105 294H7Z" />
<glyph unicode="_" horiz-adv-x="456" d="M-45 -127L-38 -68H417L409 -127H-45Z" />
<glyph unicode="`" horiz-adv-x="0" d="M154 591L64 720L65 723H164L232 591H154Z" />
<glyph unicode="a" horiz-adv-x="456" d="M165 -12Q105 -12 68 35T30 180Q30 303 60 382T136 499T231 538Q269 538 297 520T341 456L359 526H433Q433 526 430 504T421 444T410 361T396 271T384 188T376 125T372 98Q372 83 379 77T396 70H423L414 4Q406 -1 392
-6T357 -12Q325 -12 305 7T282 67Q256 26 227 7T165 -12ZM192 70Q220 70 240 91T273 145T295 216T307 289T311 348Q311 400 296 428T247 456Q217 456 196 435T161 381T139 310T128 238T125 180Q125 126 141 98T192 70Z" />
<glyph unicode="b" horiz-adv-x="470" d="M233 -12Q194 -12 164 6T117 72L97 0H23L124 723H217L182 469Q208 504 238 521T303 538Q361 538 398 492T436 345Q436 283 427 229T399 130T355 54T299 5T233 -12ZM216 72Q247 72 269 92T304 145T326 215T337 288T340
348Q340 400 323 427T270 454Q240 454 219 433T183 380T160 309T149 237T145 178Q145 127 162 100T216 72Z" />
<glyph unicode="c" horiz-adv-x="425" d="M195 -12Q119 -12 76 34T33 177Q33 236 42 299T74 417T140 504T249 538Q327 538 365 491T403 347V330H307V346Q307 401 293 428T246 456Q216 456 195 434T161 376T141 304T132 235T129 188Q129 131 145 101T197 70Q223
70 243 87T275 132T293 193H386Q378 139 355 92T293 17T195 -12Z" />
<glyph unicode="d" horiz-adv-x="470" d="M171 -12Q110 -12 73 35T35 180Q35 303 65 382T142 499T239 538Q274 538 301 522T345 468L382 723H475L374 0H299V73Q273 28 240 8T171 -12ZM201 72Q231 72 252 93T288 146T311 217T322 289T325 348Q325 400 309 427T256
454Q225 454 203 434T166 381T145 311T134 238T130 178Q130 126 147 99T201 72Z" />
<glyph unicode="e" horiz-adv-x="456" d="M204 -12Q122 -12 78 34T34 177Q34 224 40 274T61 372T101 456T166 516T261 538Q340 538 381 493T423 352Q423 326 421 297T414 237H133Q132 221 131 208T130 186Q130 127 148 98T206 69Q246 69 272 102T306 179H402Q392
128 368 85T303 15T204 -12ZM144 315H325Q326 328 326 336T326 351Q326 404 310 430T258 457Q226 457 204 437T167 383T144 315Z" />
<glyph unicode="f" horiz-adv-x="242" d="M-15 -182Q-34 -182 -54 -178T-88 -170L-78 -103H-34Q12 -103 18 -55L84 444H36L47 526H95L106 604Q110 635 124 664T165 712T234 731Q253 731 273 728T306 719L297 652H251Q205 652 199 605L189 526H279L268 444H177L111
-55Q107 -86 94 -115T54 -163T-15 -182Z" />
<glyph unicode="g" horiz-adv-x="470" d="M171 -182Q115 -182 79 -160T25 -102T7 -24H102Q102 -62 120 -81T176 -101Q222 -101 248 -70T285 25L295 87Q270 49 241 30T174 10Q128 10 98 34T52 99T37 189Q37 251 46 304T74 401T117 474T173 521T240 538Q279 538
309 520T355 454L374 526H449L382 49Q365 -74 313 -128T171 -182ZM205 92Q234 92 254 111T289 161T311 227T323 294T327 348Q326 400 309 427T256 454Q224 454 203 434T167 383T146 315T136 244T133 186Q133 92 205 92Z" />
<glyph unicode="h" horiz-adv-x="470" d="M22 0L123 723H217L181 467Q198 492 229 515T311 538Q354 538 380 522T417 477T429 415Q429 407 426 382T418 320T407 240T395 153T384 69T374 0H280Q284 27 289 64T300 143T312 226T322 302T330 360T333 389Q333 423
318 438T273 454Q228 454 198 412T157 301L115 0H22Z" />
<glyph unicode="i" horiz-adv-x="228" d="M33 0L106 526H200L126 0H33ZM117 622L132 723H228L214 622H117Z" />
<glyph unicode="j" horiz-adv-x="197" d="M-23 -182Q-42 -182 -63 -178T-96 -170L-87 -103H-43Q3 -103 9 -55L90 526H184L103 -55Q99 -86 85 -115T45 -163T-23 -182ZM100 622L115 723H211L197 622H100Z" />
<glyph unicode="k" horiz-adv-x="425" d="M20 0L121 723H215L156 304L343 526H452L267 310L386 0H285L201 233L139 178L114 0H20Z" />
<glyph unicode="l" horiz-adv-x="197" d="M18 0L118 723H212L111 0H18Z" />
<glyph unicode="m" horiz-adv-x="698" d="M23 0L97 526H171V451Q181 469 198 489T241 523T305 538Q355 538 380 513T411 448Q421 466 438 486T482 522T548 538Q588 538 612 522T646 477T657 415Q657 407 655 382T647 320T636 240T624 153T612 69T602 0H509Q512
27 517 64T529 143T540 226T551 302T558 360T561 392Q561 423 548 438T510 454Q469 454 441 415T403 310L360 0H266Q270 27 275 64T286 143T298 226T308 302T316 360T319 392Q319 423 306 438T268 454Q225 454 197 413T158 301L116 0H23Z" />
<glyph unicode="n" horiz-adv-x="470" d="M22 0L96 526H170V451Q181 468 198 488T244 523T311 538Q355 538 380 522T417 477T429 415Q429 407 427 382T419 320T408 240T396 153T384 69T374 0H281Q285 27 290 64T301 143T313 226T323 302T330 360T333 389Q333 423
319 438T274 454Q229 454 199 412T158 301L116 0H22Z" />
<glyph unicode="o" horiz-adv-x="470" d="M206 -12Q122 -12 78 34T34 177Q34 221 40 270T61 367T101 453T167 515T263 538Q348 538 392 491T436 347Q436 303 430 254T409 157T368 72T303 11T206 -12ZM208 70Q243 70 266 92T304 150T326 223T336 295T339 346Q339
401 320 428T262 456Q227 456 203 434T165 378T144 306T134 236T131 185Q131 127 149 99T208 70Z" />
<glyph unicode="p" horiz-adv-x="470" d="M-1 -179L97 526H172V453Q199 498 232 518T301 538Q362 538 399 491T437 346Q437 224 407 145T330 27T233 -12Q197 -12 170 5T126 58L93 -179H-1ZM217 72Q248 72 270 92T305 145T327 215T338 288T342 348Q342 400 325
427T271 454Q241 454 220 433T184 380T161 309T150 237T147 178Q147 127 164 100T217 72Z" />
<glyph unicode="q" horiz-adv-x="470" d="M256 -173L287 57Q262 23 233 6T168 -12Q109 -12 72 34T34 181Q34 243 43 297T71 396T115 472T171 521T238 538Q277 538 307 520T353 454L373 526H447L350 -173H256ZM200 72Q230 72 252 93T288 146T310 217T321 289T325
348Q325 400 308 427T254 454Q223 454 201 434T166 381T144 311T133 238T130 178Q130 126 147 99T200 72Z" />
<glyph unicode="r" horiz-adv-x="288" d="M18 0L92 526H166V443Q177 464 190 486T223 523T272 538Q291 538 302 534T313 530L300 435H270Q231 435 198 403T154 301L112 0H18Z" />
<glyph unicode="s" horiz-adv-x="425" d="M194 -12Q145 -12 106 7T44 60T21 142Q21 153 22 163T25 179H121Q121 173 120 165T118 149Q118 106 143 87T202 68Q233 68 254 87T275 137Q275 165 260 183T222 215T173 242T123 272T85 317T70 385Q70 431 90 465T150
519T242 538Q300 538 334 515T383 454T398 373H301Q301 419 282 438T232 458Q210 458 189 443T167 398Q167 369 182 352T220 323T270 298T320 269T358 224T373 153Q373 99 350 62T286 7T194 -12Z" />
<glyph unicode="t" horiz-adv-x="242" d="M125 -11Q75 -11 56 17T37 82Q37 88 40 116T49 186T61 272T73 356T82 419T86 444H39L50 526H98L135 673H212L191 526H264L252 444H180Q180 444 177 420T168 359T157 279T145 198T136 134T133 106Q133 70 169 70H199L190
3Q178 -3 160 -7T125 -11Z" />
<glyph unicode="u" horiz-adv-x="470" d="M159 -12Q116 -12 90 5T53 50T41 111Q41 119 44 144T51 206T62 286T74 373T86 457T96 526H189Q185 499 180 462T169 383T158 300T148 224T140 166T137 137Q137 103 151 88T196 72Q241 72 272 114T313 225L354 526H448L374
0H299V74Q290 57 272 37T226 3T159 -12Z" />
<glyph unicode="v" horiz-adv-x="425" d="M127 0L45 526H142L180 261Q182 246 184 227T188 189T192 153T196 126H200Q204 137 210 153T224 188T238 226T252 260L363 526H462L226 0H127Z" />
<glyph unicode="w" horiz-adv-x="607" d="M100 0L43 526H132L159 255Q161 234 162 206T166 151T168 107H172Q172 107 176 131T188 189T206 255L294 526H399L412 254Q413 246 413 231T414 197T414 156T414 107H418Q418 107 421 121T430 158T443 206T459 254L558
526H645L443 0H343L328 313Q327 336 327 361T328 405T329 423H324Q324 423 321 400T310 345T294 285L200 0H100Z" />
<glyph unicode="x" horiz-adv-x="425" d="M-26 0L166 271L54 526H160L228 358H230L342 526H450L267 270L384 0H278L205 183H203L79 0H-26Z" />
<glyph unicode="y" horiz-adv-x="425" d="M45 -182Q22 -182 6 -180T-17 -174L-8 -106H28Q59 -106 88 -83T139 0L48 526H145L190 231Q192 217 194 201T198 170T201 140T204 117H208Q212 126 217 139T227 168T238 200T250 231L364 526H462L249 27Q225 -30 196 -77T130
-153T45 -182Z" />
<glyph unicode="z" horiz-adv-x="410" d="M-2 0L1 43L274 444H70L82 526H415L412 484L137 82H367L355 0H-2Z" />
<glyph unicode="{" horiz-adv-x="288" d="M205 -159Q165 -159 130 -151T74 -117T53 -44Q53 -36 53 -28T55 -11Q58 7 61 32T69 84T76 135T82 176T84 195Q84 223 63 233T15 245L27 331Q54 331 80 344T112 391L140 587Q149 650 177 682T245 724T330 735L321 672Q304
672 285 667T251 647T233 604Q226 553 216 503T197 401Q188 350 164 322T88 293L87 283Q131 283 149 261T167 200Q167 174 164 138T155 66T147 0T143 -42Q143 -75 166 -85T214 -96L205 -159Z" />
<glyph unicode="|" horiz-adv-x="218" d="M68 -173V723H150V-173H68Z" />
<glyph unicode="}" horiz-adv-x="288" d="M-38 -159L-29 -96Q-11 -96 8 -91T41 -71T60 -28Q67 24 77 74T95 175Q104 226 128 254T205 283L206 293Q161 293 143 315T125 376Q125 402 128 438T137 510T145 576T149 618Q149 652 127 662T79 672L87 735Q129 735 163
727T218 694T240 620Q240 612 240 604T237 587Q235 569 231 544T224 492T216 441T210 400T208 381Q208 354 230 343T277 331L266 245Q239 245 212 232T180 185L152 -11Q143 -74 115 -105T48 -148T-38 -159Z" />
<glyph unicode="~" horiz-adv-x="479" d="M21 207L36 307Q36 307 45 318T70 343T111 369T165 380Q188 380 208 371T248 350T287 328T332 319Q358 319 381 330T422 355T450 380T462 392L447 292Q447 292 438 281T413 256T372 230T318 219Q295 219 275 228T235 249T196
271T151 280Q125 280 102 269T61 244T33 219T21 207Z" />
<glyph unicode="&#xa0;" horiz-adv-x="228" />
<glyph unicode="&#xa1;" horiz-adv-x="273" d="M35 -160L135 347H203L160 -160H35ZM122 409L139 526H251L234 409H122Z" />
<glyph unicode="&#xa2;" horiz-adv-x="456" d="M160 -48L177 71Q115 81 82 126T48 257Q48 315 56 376T87 490T150 578T254 617L269 723H317L302 615Q364 606 394 560T425 427V410H334V426Q334 471 324 497T291 534L237 151Q270 160 292 194T320 273H408Q400 221
378 176T318 101T225 68L209 -48H160ZM188 151L242 535Q215 527 197 502T167 443T149 374T141 311T139 268Q139 220 151 191T188 151Z" />
<glyph unicode="&#xa3;" horiz-adv-x="456" d="M-3 0L10 88H67L96 299H27L38 380H107L124 499Q139 602 186 650T309 698Q380 698 421 665T462 554Q462 542 461 528T456 491H363Q367 514 368 524T369 541Q369 579 353 597T307 616Q272 616 250 593T221 518L202
380H330L319 299H189L151 88H398L385 0H-3Z" />
<glyph unicode="&#xa4;" horiz-adv-x="456" d="M228 100Q190 100 156 114T93 154L50 112L-2 164L47 213Q32 241 23 274T14 342Q14 377 23 409T47 470L-2 520L50 572L92 529Q120 556 154 570T228 585Q267 585 301 571T363 529L406 572L458 520L409 471Q425 443
433 410T442 342Q442 306 434 274T408 213L458 164L406 112L363 154Q336 129 301 115T228 100ZM228 175Q266 175 298 198T348 258T367 342Q367 389 349 426T298 487T228 510Q190 510 158 487T107 427T88 342Q88 296 106 259T157 198T228 175Z" />
<glyph unicode="&#xa5;" horiz-adv-x="456" d="M143 0L167 164H14L24 234H176L186 304H34L43 374H164L64 686H169L253 402H257L417 686H513L326 374H446L436 304H284L274 234H426L417 164H264L241 0H143Z" />
<glyph unicode="&#xa6;" horiz-adv-x="218" d="M68 346V723H150V346H68ZM68 -173V204H150V-173H68Z" />
<glyph unicode="&#xa7;" horiz-adv-x="456" d="M173 -182Q102 -182 62 -148T22 -60Q22 -50 24 -36T28 -18H124Q123 -27 123 -32T122 -42Q122 -67 136 -84T182 -102Q213 -102 230 -88T253 -54T259 -20Q259 10 245 30T207 67T157 98T108 133T69 181T54 250Q54 305
81 346T144 412Q126 430 115 455T103 515Q103 573 127 614T192 676T288 698Q359 698 399 664T439 577Q439 566 437 552T433 534H337Q338 543 338 548T339 557Q339 583 325 600T279 618Q248 618 231 604T208 570T202 536Q202 505 216 485T254 449T304 417T353 382T391
335T406 266Q406 211 380 170T317 105Q335 86 346 61T358 1Q358 -57 334 -98T269 -160T173 -182ZM268 142Q286 156 298 180T311 236Q311 273 293 296T248 337T193 373Q174 359 162 335T150 280Q150 244 168 220T213 179T268 142Z" />
<glyph unicode="&#xa8;" horiz-adv-x="0" d="M208 624L223 723H314L299 624H208ZM50 624L65 723H156L141 624H50Z" />
<glyph unicode="&#xa9;" horiz-adv-x="604" d="M302 -12Q214 -12 151 32T54 155T19 343Q19 451 53 531T151 654T302 698Q390 698 453 655T550 531T585 343Q585 235 551 156T453 32T302 -12ZM304 137Q226 137 185 189T144 346Q144 453 185 504T304 556Q367 556
407 519T448 402H380Q380 450 360 473T304 497Q257 497 235 463T213 362V332Q213 266 235 232T305 197Q340 197 361 220T383 291H448Q448 213 408 175T304 137ZM302 38Q375 38 427 75T507 182T535 343Q535 436 507 504T427 610T302 648Q230 648 178 611T97 505T69
343Q69 251 97 182T177 76T302 38Z" />
<glyph unicode="&#xaa;" horiz-adv-x="303" d="M156 362Q115 362 90 394T64 492Q64 576 84 629T136 708T201 735Q225 735 243 722T271 679L302 727H338Q338 727 335 707T327 654T317 585T307 515T299 461T296 437Q296 427 300 423T312 418H331L325 373Q319 369
310 366T286 362Q263 362 249 375T232 415Q215 388 197 375T156 362ZM174 421Q197 421 211 442T235 493T247 555T251 606Q251 641 242 658T211 676Q187 676 172 655T147 603T135 542T132 492Q132 421 174 421Z" />
<glyph unicode="&#xab;" horiz-adv-x="456" d="M318 126L207 326L372 526H452L313 326L395 126H318ZM156 126L46 326L211 526H291L151 326L234 126H156Z" />
<glyph unicode="&#xac;" horiz-adv-x="479" d="M330 194L352 357H42L56 456H458L422 194H330Z" />
<glyph unicode="&#xad;" horiz-adv-x="273" d="M6 218L20 322H269L255 218H6Z" />
<glyph unicode="&#xae;" horiz-adv-x="604" d="M302 -12Q214 -12 151 32T54 155T19 343Q19 451 53 531T151 654T302 698Q390 698 453 655T550 531T585 343Q585 235 551 156T453 32T302 -12ZM302 38Q375 38 427 75T507 182T535 343Q535 436 507 504T427 610T302
648Q230 648 178 611T97 505T69 343Q69 251 97 182T177 76T302 38ZM176 145V549H329Q379 549 410 517T442 431Q442 392 426 363T387 322L467 145H399L329 300H242V145H176ZM242 358H308Q342 358 358 375T374 425Q374 456 358 472T308 488H242V358Z" />
<glyph unicode="&#xaf;" horiz-adv-x="0" d="M47 599L58 676H309L299 599H47Z" />
<glyph unicode="&#xb0;" horiz-adv-x="400" d="M206 424Q169 424 138 442T88 491T69 561Q69 599 87 630T137 679T206 698Q245 698 276 680T325 630T343 561Q343 523 325 492T276 442T206 424ZM206 481Q239 481 262 504T285 561Q285 594 262 616T206 639Q173 639
150 617T127 561Q127 528 150 505T206 481Z" />
<glyph unicode="&#xb1;" horiz-adv-x="549" d="M206 132L231 312H77L90 403H244L269 583H358L333 403H488L475 312H320L295 132H206ZM34 0L46 89H444L432 0H34Z" />
<glyph unicode="&#xb2;" horiz-adv-x="273" d="M56 435L58 450Q64 495 96 530T162 596Q197 627 218 651T239 703Q239 716 232 727T205 738Q187 738 175 723T159 684L156 656H90Q90 656 90 659T89 669Q89 726 122 762T210 799Q254 799 280 778T307 712Q307 676
293 648T257 598T212 556Q194 540 178 525T154 494H281L273 435H56Z" />
<glyph unicode="&#xb3;" horiz-adv-x="273" d="M162 428Q105 428 79 455T62 536L64 547H132L130 534Q126 513 136 500T166 487Q192 487 207 503T222 548Q222 569 210 579T180 589H153L161 646H188Q209 646 224 664T239 708Q239 727 229 733T205 740Q187 740 174
728T159 697L156 677H89L92 702Q97 746 131 772T212 799Q255 799 281 780T307 721Q307 683 290 659T249 621Q268 610 278 591T289 549Q289 497 253 463T162 428Z" />
<glyph unicode="&#xb4;" horiz-adv-x="0" d="M46 591L150 723H249L250 720L124 591H46Z" />
<glyph unicode="&#xb5;" horiz-adv-x="470" d="M-2 -173L96 526H190L139 152Q133 109 149 91T196 72Q242 72 273 114T313 226L355 526H448L374 0H301L299 73Q287 47 264 28T214 -2T160 -13Q134 -13 113 -2T84 35L105 47Q108 17 107 -20T101 -97T92 -173H-2Z" />
<glyph unicode="&#xb6;" horiz-adv-x="445" d="M126 -173L186 250Q122 258 83 308T44 431Q44 512 76 569T160 656T270 686H488L479 620H431L319 -173H249L360 620H307L196 -173H126Z" />
<glyph unicode="&#xb7;" horiz-adv-x="228" d="M68 285L84 402H192L176 285H68Z" />
<glyph unicode="&#xb8;" horiz-adv-x="0" d="M21 -182Q-24 -182 -61 -174L-55 -125H19Q40 -125 49 -118T59 -96Q59 -77 28 -77H-5L21 11H81L67 -35Q140 -41 140 -91Q140 -134 109 -158T21 -182Z" />
<glyph unicode="&#xb9;" horiz-adv-x="273" d="M68 434L76 494H147L176 705H104L110 747Q136 750 167 760T223 786H257L216 494H283L274 434H68Z" />
<glyph unicode="&#xba;" horiz-adv-x="299" d="M174 362Q117 362 87 393T57 489Q57 527 63 569T87 649T135 710T213 734Q270 734 300 703T330 605Q330 568 323 526T299 446T252 385T174 362ZM175 420Q198 420 213 435T238 473T252 522T258 570T260 605Q260 676
212 676Q189 676 173 662T148 624T135 576T128 529T126 495Q126 420 175 420Z" />
<glyph unicode="&#xbb;" horiz-adv-x="456" d="M179 126L319 326L236 526H313L424 326L259 126H179ZM18 126L157 326L75 526H151L263 326L97 126H18Z" />
<glyph unicode="&#xbc;" horiz-adv-x="683" d="M310 590L318 650H389L418 861H346L352 903Q378 906 409 916T465 942H499L458 650H525L516 590H310ZM70 -12L577 698H641L134 -12H70ZM536 0L547 79H406L413 130Q450 179 480 237T532 365H606Q590 321 568 277T523
196T484 139H555L565 206Q576 226 587 254T608 306H645L621 139H655L647 79H613L602 0H536Z" />
<glyph unicode="&#xbd;" horiz-adv-x="683" d="M310 590L318 650H389L418 861H346L352 903Q378 906 409 916T465 942H499L458 650H525L516 590H310ZM70 -12L577 698H641L134 -12H70ZM405 0L407 15Q413 60 445 95T511 161Q546 192 567 216T588 268Q588 281 581
292T554 303Q536 303 524 288T508 249L505 221H439Q439 221 439 224T438 234Q438 291 471 327T559 364Q603 364 629 343T656 277Q656 241 642 213T606 163T561 121Q543 105 527 90T503 59H630L622 0H405Z" />
<glyph unicode="&#xbe;" horiz-adv-x="683" d="M404 584Q347 584 321 611T304 692L306 703H374L372 690Q368 669 378 656T408 643Q434 643 449 659T464 704Q464 725 452 735T422 745H395L403 802H430Q451 802 466 820T481 864Q481 883 471 889T447 896Q429 896
416 884T401 853L398 833H331L334 858Q339 902 373 928T454 955Q497 955 523 936T549 877Q549 839 532 815T491 777Q510 766 520 747T531 705Q531 653 495 619T404 584ZM70 -12L577 698H641L134 -12H70ZM536 0L547 79H406L413 130Q450 179 480 237T532 365H606Q590
321 568 277T523 196T484 139H555L565 206Q576 226 587 254T608 306H645L621 139H655L647 79H613L602 0H536Z" />
<glyph unicode="&#xbf;" horiz-adv-x="501" d="M234 -172Q157 -172 112 -131T66 -22Q66 36 82 75T122 143T171 194T214 243T238 304L244 341H343L335 289Q330 249 312 221T271 170T225 124T187 70T172 -3Q172 -20 177 -39T198 -72T243 -86Q273 -86 292 -73T324
-39T342 3T349 42T351 67H452Q451 4 426 -50T353 -138T234 -172ZM247 409L264 526H376L358 409H247Z" />
<glyph unicode="&#xc0;" horiz-adv-x="561" d="M-36 0L278 686H402L524 0H420L396 147H130L64 0H-36ZM171 238H381L336 506Q334 523 333 545T330 583T329 600H325Q325 600 320 583T306 544T291 506L171 238ZM327 751L233 850L234 853H333L405 751H327Z" />
<glyph unicode="&#xc1;" horiz-adv-x="561" d="M-36 0L278 686H402L524 0H420L396 147H130L64 0H-36ZM171 238H381L336 506Q334 523 333 545T330 583T329 600H325Q325 600 320 583T306 544T291 506L171 238ZM277 751L364 853H473L474 850L365 751H277Z" />
<glyph unicode="&#xc2;" horiz-adv-x="561" d="M-36 0L278 686H402L524 0H420L396 147H130L64 0H-36ZM171 238H381L336 506Q334 523 333 545T330 583T329 600H325Q325 600 320 583T306 544T291 506L171 238ZM219 747L319 852H403L474 747H392L355 793L303 747H219Z" />
<glyph unicode="&#xc3;" horiz-adv-x="561" d="M-36 0L278 686H402L524 0H420L396 147H130L64 0H-36ZM171 238H381L336 506Q334 523 333 545T330 583T329 600H325Q325 600 320 583T306 544T291 506L171 238ZM209 752Q212 778 222 800T253 837T304 851Q330 851
346 844T376 829T409 821Q421 821 431 827T446 851H500Q496 825 486 803T456 766T405 752Q380 752 363 759T333 774T300 781Q287 781 278 775T263 752H209Z" />
<glyph unicode="&#xc4;" horiz-adv-x="561" d="M-36 0L278 686H402L524 0H420L396 147H130L64 0H-36ZM171 238H381L336 506Q334 523 333 545T330 583T329 600H325Q325 600 320 583T306 544T291 506L171 238ZM384 784L399 883H490L475 784H384ZM226 784L241 883H332L317
784H226Z" />
<glyph unicode="&#xc5;" horiz-adv-x="561" d="M-36 0L278 686H402L524 0H420L396 147H130L64 0H-36ZM171 238H381L336 506Q334 523 333 545T330 583T329 600H325Q325 600 320 583T306 544T291 506L171 238ZM344 722Q308 722 284 746T260 804Q260 852 291 883T370
914Q406 914 430 890T454 831Q454 785 423 754T344 722ZM351 773Q373 773 387 788T402 825Q402 841 391 851T363 862Q341 862 327 848T312 813Q312 796 323 785T351 773Z" />
<glyph unicode="&#xc6;" horiz-adv-x="820" d="M-46 0L322 686H830L817 595H456L474 396H746L733 306H482L501 91H753L740 0H406L393 147H133L58 0H-46ZM180 238H386L362 514Q361 527 360 543T359 574T357 592H353Q353 592 347 575T331 536T314 498L180 238Z" />
<glyph unicode="&#xc7;" horiz-adv-x="592" d="M285 -12Q176 -12 113 50T49 244Q49 301 58 363T89 485T145 593T231 669T353 698Q460 698 518 637T576 450V435H473V456Q473 530 443 569T352 608Q309 608 277 588T223 536T187 463T165 383T154 307T151 249Q151
167 185 123T284 79Q333 79 367 102T422 163T450 246H549Q538 177 505 118T418 24T285 -12ZM239 -182Q194 -182 157 -174L163 -125H237Q277 -125 277 -96Q277 -86 270 -82T246 -77H213L239 11H299L285 -35Q358 -41 358 -91Q358 -134 327 -158T239 -182Z" />
<glyph unicode="&#xc8;" horiz-adv-x="547" d="M32 0L129 686H555L541 595H216L188 396H470L457 306H175L145 91H477L464 0H32ZM331 751L237 850L238 853H337L409 751H331Z" />
<glyph unicode="&#xc9;" horiz-adv-x="547" d="M32 0L129 686H555L541 595H216L188 396H470L457 306H175L145 91H477L464 0H32ZM282 751L369 853H478L479 850L370 751H282Z" />
<glyph unicode="&#xca;" horiz-adv-x="547" d="M32 0L129 686H555L541 595H216L188 396H470L457 306H175L145 91H477L464 0H32ZM223 747L323 852H407L478 747H396L359 793L307 747H223Z" />
<glyph unicode="&#xcb;" horiz-adv-x="547" d="M32 0L129 686H555L541 595H216L188 396H470L457 306H175L145 91H477L464 0H32ZM389 784L404 883H495L480 784H389ZM231 784L246 883H337L322 784H231Z" />
<glyph unicode="&#xcc;" horiz-adv-x="228" d="M29 0L126 686H226L129 0H29ZM165 751L71 850L72 853H171L243 751H165Z" />
<glyph unicode="&#xcd;" horiz-adv-x="228" d="M29 0L126 686H226L129 0H29ZM116 751L203 853H312L313 850L204 751H116Z" />
<glyph unicode="&#xce;" horiz-adv-x="228" d="M29 0L126 686H226L129 0H29ZM57 747L157 852H241L312 747H230L193 793L141 747H57Z" />
<glyph unicode="&#xcf;" horiz-adv-x="228" d="M29 0L126 686H226L129 0H29ZM223 784L238 883H329L314 784H223ZM65 784L80 883H171L156 784H65Z" />
<glyph unicode="&#xd0;" horiz-adv-x="592" d="M32 0L76 320H17L26 390H86L129 686H334Q445 686 506 622T567 428Q567 374 557 315T525 199T467 98T382 27T265 0H32ZM146 91H254Q304 91 340 112T400 169T438 249T458 339T464 425Q464 510 427 552T322 595H216L187
390H333L323 320H177L146 91Z" />
<glyph unicode="&#xd1;" horiz-adv-x="592" d="M31 0L128 686H213L396 272Q401 260 408 240T420 205T425 189L428 190Q428 190 429 206T433 241T437 270L495 686H585L488 0H405L221 418Q216 431 209 450T196 486T191 502L188 500Q188 500 187 485T184 451T180
420L121 0H31ZM228 752Q231 778 241 800T272 837T323 851Q349 851 365 844T395 829T428 821Q440 821 450 827T465 851H519Q515 825 505 803T475 766T424 752Q399 752 382 759T352 774T319 781Q306 781 297 775T282 752H228Z" />
<glyph unicode="&#xd2;" horiz-adv-x="638" d="M292 -12Q177 -12 113 52T49 248Q49 306 59 368T92 490T151 596T242 670T367 698Q483 698 547 633T611 436Q611 378 601 316T567 195T507 90T417 16T292 -12ZM291 78Q343 78 380 101T442 163T481 249T501 344T507
435Q507 520 471 564T368 608Q316 608 279 585T217 524T178 438T158 343T152 251Q152 165 188 122T291 78ZM370 751L276 850L277 853H376L448 751H370Z" />
<glyph unicode="&#xd3;" horiz-adv-x="638" d="M292 -12Q177 -12 113 52T49 248Q49 306 59 368T92 490T151 596T242 670T367 698Q483 698 547 633T611 436Q611 378 601 316T567 195T507 90T417 16T292 -12ZM291 78Q343 78 380 101T442 163T481 249T501 344T507
435Q507 520 471 564T368 608Q316 608 279 585T217 524T178 438T158 343T152 251Q152 165 188 122T291 78ZM321 751L408 853H517L518 850L409 751H321Z" />
<glyph unicode="&#xd4;" horiz-adv-x="638" d="M292 -12Q177 -12 113 52T49 248Q49 306 59 368T92 490T151 596T242 670T367 698Q483 698 547 633T611 436Q611 378 601 316T567 195T507 90T417 16T292 -12ZM291 78Q343 78 380 101T442 163T481 249T501 344T507
435Q507 520 471 564T368 608Q316 608 279 585T217 524T178 438T158 343T152 251Q152 165 188 122T291 78ZM262 747L362 852H446L517 747H435L398 793L346 747H262Z" />
<glyph unicode="&#xd5;" horiz-adv-x="638" d="M292 -12Q177 -12 113 52T49 248Q49 306 59 368T92 490T151 596T242 670T367 698Q483 698 547 633T611 436Q611 378 601 316T567 195T507 90T417 16T292 -12ZM291 78Q343 78 380 101T442 163T481 249T501 344T507
435Q507 520 471 564T368 608Q316 608 279 585T217 524T178 438T158 343T152 251Q152 165 188 122T291 78ZM252 752Q255 778 265 800T296 837T347 851Q373 851 389 844T419 829T452 821Q464 821 474 827T489 851H543Q539 825 529 803T499 766T448 752Q423 752 406
759T376 774T343 781Q330 781 321 775T306 752H252Z" />
<glyph unicode="&#xd6;" horiz-adv-x="638" d="M292 -12Q177 -12 113 52T49 248Q49 306 59 368T92 490T151 596T242 670T367 698Q483 698 547 633T611 436Q611 378 601 316T567 195T507 90T417 16T292 -12ZM291 78Q343 78 380 101T442 163T481 249T501 344T507
435Q507 520 471 564T368 608Q316 608 279 585T217 524T178 438T158 343T152 251Q152 165 188 122T291 78ZM428 784L443 883H534L519 784H428ZM270 784L285 883H376L361 784H270Z" />
<glyph unicode="&#xd7;" horiz-adv-x="479" d="M65 43L13 106L184 255L55 405L124 469L255 318L426 469L478 405L305 255L436 106L367 43L236 192L65 43Z" />
<glyph unicode="&#xd8;" horiz-adv-x="638" d="M48 -37L540 723H611L119 -37H48ZM292 -12Q177 -12 113 52T49 248Q49 306 59 368T92 490T151 596T242 670T367 698Q483 698 547 633T611 436Q611 378 601 316T567 195T507 90T417 16T292 -12ZM291 78Q343 78 380
101T442 163T481 249T501 344T507 435Q507 520 471 564T368 608Q316 608 279 585T217 524T178 438T158 343T152 251Q152 165 188 122T291 78Z" />
<glyph unicode="&#xd9;" horiz-adv-x="592" d="M270 -12Q169 -12 114 35T58 174Q58 184 61 216T71 295T84 395T99 499T113 592T123 660T127 686H227Q227 686 224 661T214 593T201 499T187 395T173 299T163 225T159 189Q159 135 188 107T271 78Q331 78 369 114T418
221L483 686H583L518 223Q502 108 437 48T270 -12ZM343 751L249 850L250 853H349L421 751H343Z" />
<glyph unicode="&#xda;" horiz-adv-x="592" d="M270 -12Q169 -12 114 35T58 174Q58 184 61 216T71 295T84 395T99 499T113 592T123 660T127 686H227Q227 686 224 661T214 593T201 499T187 395T173 299T163 225T159 189Q159 135 188 107T271 78Q331 78 369 114T418
221L483 686H583L518 223Q502 108 437 48T270 -12ZM294 751L381 853H490L491 850L382 751H294Z" />
<glyph unicode="&#xdb;" horiz-adv-x="592" d="M270 -12Q169 -12 114 35T58 174Q58 184 61 216T71 295T84 395T99 499T113 592T123 660T127 686H227Q227 686 224 661T214 593T201 499T187 395T173 299T163 225T159 189Q159 135 188 107T271 78Q331 78 369 114T418
221L483 686H583L518 223Q502 108 437 48T270 -12ZM236 747L336 852H420L491 747H409L372 793L320 747H236Z" />
<glyph unicode="&#xdc;" horiz-adv-x="592" d="M270 -12Q169 -12 114 35T58 174Q58 184 61 216T71 295T84 395T99 499T113 592T123 660T127 686H227Q227 686 224 661T214 593T201 499T187 395T173 299T163 225T159 189Q159 135 188 107T271 78Q331 78 369 114T418
221L483 686H583L518 223Q502 108 437 48T270 -12ZM401 784L416 883H507L492 784H401ZM243 784L258 883H349L334 784H243Z" />
<glyph unicode="&#xdd;" horiz-adv-x="547" d="M190 0L229 276L69 686H176L293 373H297L500 686H603L329 276L290 0H190ZM278 751L365 853H474L475 850L366 751H278Z" />
<glyph unicode="&#xde;" horiz-adv-x="547" d="M32 0L129 686H229L211 554H346Q442 554 489 507T536 382Q536 309 506 256T423 174T302 145H153L132 0H32ZM166 235H306Q359 235 395 270T431 364Q431 411 407 437T335 464H198L166 235Z" />
<glyph unicode="&#xdf;" horiz-adv-x="501" d="M18 0L89 517Q100 595 132 643T213 713T316 735Q395 735 443 694T492 577Q492 539 477 502T436 437T374 395V391Q416 375 441 332T466 237Q466 193 450 151T403 75T333 20T245 0H164L175 83H237Q271 83 301 103T351
158T370 233Q370 279 343 310T273 342H211L223 427H279Q310 427 336 446T379 498T396 566Q396 606 375 629T310 653Q261 653 227 620T183 521L110 0H18Z" />
<glyph unicode="&#xe0;" horiz-adv-x="456" d="M165 -12Q105 -12 68 35T30 180Q30 303 60 382T136 499T231 538Q269 538 297 520T341 456L359 526H433Q433 526 430 504T421 444T410 361T396 271T384 188T376 125T372 98Q372 83 379 77T396 70H423L414 4Q406 -1
392 -6T357 -12Q325 -12 305 7T282 67Q256 26 227 7T165 -12ZM192 70Q220 70 240 91T273 145T295 216T307 289T311 348Q311 400 296 428T247 456Q217 456 196 435T161 381T139 310T128 238T125 180Q125 126 141 98T192 70ZM250 591L160 720L161 723H260L328 591H250Z"
/>
<glyph unicode="&#xe1;" horiz-adv-x="456" d="M165 -12Q105 -12 68 35T30 180Q30 303 60 382T136 499T231 538Q269 538 297 520T341 456L359 526H433Q433 526 430 504T421 444T410 361T396 271T384 188T376 125T372 98Q372 83 379 77T396 70H423L414 4Q406 -1
392 -6T357 -12Q325 -12 305 7T282 67Q256 26 227 7T165 -12ZM192 70Q220 70 240 91T273 145T295 216T307 289T311 348Q311 400 296 428T247 456Q217 456 196 435T161 381T139 310T128 238T125 180Q125 126 141 98T192 70ZM209 591L313 723H412L413 720L287 591H209Z"
/>
<glyph unicode="&#xe2;" horiz-adv-x="456" d="M165 -12Q105 -12 68 35T30 180Q30 303 60 382T136 499T231 538Q269 538 297 520T341 456L359 526H433Q433 526 430 504T421 444T410 361T396 271T384 188T376 125T372 98Q372 83 379 77T396 70H423L414 4Q406 -1
392 -6T357 -12Q325 -12 305 7T282 67Q256 26 227 7T165 -12ZM192 70Q220 70 240 91T273 145T295 216T307 289T311 348Q311 400 296 428T247 456Q217 456 196 435T161 381T139 310T128 238T125 180Q125 126 141 98T192 70ZM142 587L246 722H330L397 587H316L283
663L227 587H142Z" />
<glyph unicode="&#xe3;" horiz-adv-x="456" d="M165 -12Q105 -12 68 35T30 180Q30 303 60 382T136 499T231 538Q269 538 297 520T341 456L359 526H433Q433 526 430 504T421 444T410 361T396 271T384 188T376 125T372 98Q372 83 379 77T396 70H423L414 4Q406 -1
392 -6T357 -12Q325 -12 305 7T282 67Q256 26 227 7T165 -12ZM192 70Q220 70 240 91T273 145T295 216T307 289T311 348Q311 400 296 428T247 456Q217 456 196 435T161 381T139 310T128 238T125 180Q125 126 141 98T192 70ZM121 613Q126 641 139 666T175 707T226
723Q253 723 271 715T306 699T342 690Q356 690 367 698T383 723H443Q440 696 426 671T390 630T338 613Q311 613 292 621T257 638T222 646Q209 646 198 638T182 613H121Z" />
<glyph unicode="&#xe4;" horiz-adv-x="456" d="M165 -12Q105 -12 68 35T30 180Q30 303 60 382T136 499T231 538Q269 538 297 520T341 456L359 526H433Q433 526 430 504T421 444T410 361T396 271T384 188T376 125T372 98Q372 83 379 77T396 70H423L414 4Q406 -1
392 -6T357 -12Q325 -12 305 7T282 67Q256 26 227 7T165 -12ZM192 70Q220 70 240 91T273 145T295 216T307 289T311 348Q311 400 296 428T247 456Q217 456 196 435T161 381T139 310T128 238T125 180Q125 126 141 98T192 70ZM308 624L323 723H414L399 624H308ZM150
624L165 723H256L241 624H150Z" />
<glyph unicode="&#xe5;" horiz-adv-x="456" d="M165 -12Q105 -12 68 35T30 180Q30 303 60 382T136 499T231 538Q269 538 297 520T341 456L359 526H433Q433 526 430 504T421 444T410 361T396 271T384 188T376 125T372 98Q372 83 379 77T396 70H423L414 4Q406 -1
392 -6T357 -12Q325 -12 305 7T282 67Q256 26 227 7T165 -12ZM192 70Q220 70 240 91T273 145T295 216T307 289T311 348Q311 400 296 428T247 456Q217 456 196 435T161 381T139 310T128 238T125 180Q125 126 141 98T192 70ZM267 562Q232 562 208 586T184 644Q184
692 215 723T294 754Q330 754 354 730T378 671Q378 625 346 594T267 562ZM274 608Q298 608 314 624T330 665Q330 684 318 695T287 707Q263 707 247 691T230 651Q230 633 242 621T274 608Z" />
<glyph unicode="&#xe6;" horiz-adv-x="729" d="M165 -12Q135 -12 102 -3T47 35T24 118Q24 178 47 216T110 276T203 306T315 315L324 378Q325 384 325 390T326 400Q326 426 312 441T261 457Q218 457 198 432T174 370H82Q82 422 106 459T174 517T272 538Q318 538
349 525T397 486Q422 510 455 524T531 538Q610 538 651 493T693 352Q693 326 691 297T684 237H403Q402 221 402 208T401 186Q401 127 419 98T476 69Q516 69 542 102T576 179H672Q662 128 638 85T573 15T475 -12Q366 -12 326 66Q296 30 254 9T165 -12ZM182 70Q208
70 233 84T275 124T298 189L304 237Q254 237 213 229T147 198T123 131Q123 98 138 84T182 70ZM414 315H595Q597 328 597 336T597 351Q597 404 580 430T528 457Q496 457 474 437T437 383T414 315Z" />
<glyph unicode="&#xe7;" horiz-adv-x="425" d="M195 -12Q119 -12 76 34T33 177Q33 236 42 299T74 417T140 504T249 538Q327 538 365 491T403 347V330H307V346Q307 401 293 428T246 456Q216 456 195 434T161 376T141 304T132 235T129 188Q129 131 145 101T197 70Q223
70 243 87T275 132T293 193H386Q378 139 355 92T293 17T195 -12ZM149 -182Q104 -182 67 -174L73 -125H147Q168 -125 177 -118T187 -96Q187 -77 156 -77H123L149 11H209L195 -35Q268 -41 268 -91Q268 -134 237 -158T149 -182Z" />
<glyph unicode="&#xe8;" horiz-adv-x="456" d="M204 -12Q122 -12 78 34T34 177Q34 224 40 274T61 372T101 456T166 516T261 538Q340 538 381 493T423 352Q423 326 421 297T414 237H133Q132 221 131 208T130 186Q130 127 148 98T206 69Q246 69 272 102T306 179H402Q392
128 368 85T303 15T204 -12ZM144 315H325Q326 328 326 336T326 351Q326 404 310 430T258 457Q226 457 204 437T167 383T144 315ZM254 591L164 720L165 723H264L332 591H254Z" />
<glyph unicode="&#xe9;" horiz-adv-x="456" d="M204 -12Q122 -12 78 34T34 177Q34 224 40 274T61 372T101 456T166 516T261 538Q340 538 381 493T423 352Q423 326 421 297T414 237H133Q132 221 131 208T130 186Q130 127 148 98T206 69Q246 69 272 102T306 179H402Q392
128 368 85T303 15T204 -12ZM144 315H325Q326 328 326 336T326 351Q326 404 310 430T258 457Q226 457 204 437T167 383T144 315ZM213 591L317 723H416L417 720L291 591H213Z" />
<glyph unicode="&#xea;" horiz-adv-x="456" d="M204 -12Q122 -12 78 34T34 177Q34 224 40 274T61 372T101 456T166 516T261 538Q340 538 381 493T423 352Q423 326 421 297T414 237H133Q132 221 131 208T130 186Q130 127 148 98T206 69Q246 69 272 102T306 179H402Q392
128 368 85T303 15T204 -12ZM144 315H325Q326 328 326 336T326 351Q326 404 310 430T258 457Q226 457 204 437T167 383T144 315ZM147 587L251 722H335L402 587H321L288 663L232 587H147Z" />
<glyph unicode="&#xeb;" horiz-adv-x="456" d="M204 -12Q122 -12 78 34T34 177Q34 224 40 274T61 372T101 456T166 516T261 538Q340 538 381 493T423 352Q423 326 421 297T414 237H133Q132 221 131 208T130 186Q130 127 148 98T206 69Q246 69 272 102T306 179H402Q392
128 368 85T303 15T204 -12ZM144 315H325Q326 328 326 336T326 351Q326 404 310 430T258 457Q226 457 204 437T167 383T144 315ZM312 624L327 723H418L403 624H312ZM154 624L169 723H260L245 624H154Z" />
<glyph unicode="&#xec;" horiz-adv-x="228" d="M33 0L106 526H200L126 0H33ZM397 591L307 720L308 723H407L475 591H397Z" />
<glyph unicode="&#xed;" horiz-adv-x="228" d="M33 0L106 526H200L126 0H33ZM100 591L204 723H303L304 720L178 591H100Z" />
<glyph unicode="&#xee;" horiz-adv-x="228" d="M33 0L106 526H200L126 0H33ZM289 587L393 722H477L544 587H463L430 663L374 587H289Z" />
<glyph unicode="&#xef;" horiz-adv-x="228" d="M33 0L106 526H200L126 0H33ZM455 624L470 723H561L546 624H455ZM297 624L312 723H403L388 624H297Z" />
<glyph unicode="&#xf0;" horiz-adv-x="470" d="M207 -12Q122 -12 78 34T34 179Q34 303 65 382T146 500T250 538Q265 538 279 535T306 527L307 529Q300 549 290 567T268 605L146 595L154 659L227 665Q217 680 207 693T187 719L189 723H288Q298 712 308 700T327
674L450 686L441 622L368 615Q399 562 417 498T436 356Q436 229 407 148T326 27T207 -12ZM208 70Q244 70 267 92T305 150T327 223T336 295T339 346Q339 401 321 428T262 456Q227 456 204 434T166 378T144 306T134 236T131 185Q131 127 149 99T208 70Z" />
<glyph unicode="&#xf1;" horiz-adv-x="470" d="M22 0L96 526H170V451Q181 468 198 488T244 523T311 538Q355 538 380 522T417 477T429 415Q429 407 427 382T419 320T408 240T396 153T384 69T374 0H281Q285 27 290 64T301 143T313 226T323 302T330 360T333 389Q333
423 319 438T274 454Q229 454 199 412T158 301L116 0H22ZM130 613Q135 641 148 666T184 707T235 723Q262 723 280 715T315 699T351 690Q365 690 376 698T392 723H452Q449 696 435 671T399 630T347 613Q320 613 301 621T266 638T231 646Q218 646 207 638T191 613H130Z"
/>
<glyph unicode="&#xf2;" horiz-adv-x="470" d="M206 -12Q122 -12 78 34T34 177Q34 221 40 270T61 367T101 453T167 515T263 538Q348 538 392 491T436 347Q436 303 430 254T409 157T368 72T303 11T206 -12ZM208 70Q243 70 266 92T304 150T326 223T336 295T339 346Q339
401 320 428T262 456Q227 456 203 434T165 378T144 306T134 236T131 185Q131 127 149 99T208 70ZM261 591L171 720L172 723H271L339 591H261Z" />
<glyph unicode="&#xf3;" horiz-adv-x="470" d="M206 -12Q122 -12 78 34T34 177Q34 221 40 270T61 367T101 453T167 515T263 538Q348 538 392 491T436 347Q436 303 430 254T409 157T368 72T303 11T206 -12ZM208 70Q243 70 266 92T304 150T326 223T336 295T339 346Q339
401 320 428T262 456Q227 456 203 434T165 378T144 306T134 236T131 185Q131 127 149 99T208 70ZM219 591L323 723H422L423 720L297 591H219Z" />
<glyph unicode="&#xf4;" horiz-adv-x="470" d="M206 -12Q122 -12 78 34T34 177Q34 221 40 270T61 367T101 453T167 515T263 538Q348 538 392 491T436 347Q436 303 430 254T409 157T368 72T303 11T206 -12ZM208 70Q243 70 266 92T304 150T326 223T336 295T339 346Q339
401 320 428T262 456Q227 456 203 434T165 378T144 306T134 236T131 185Q131 127 149 99T208 70ZM153 587L257 722H341L408 587H327L294 663L238 587H153Z" />
<glyph unicode="&#xf5;" horiz-adv-x="470" d="M206 -12Q122 -12 78 34T34 177Q34 221 40 270T61 367T101 453T167 515T263 538Q348 538 392 491T436 347Q436 303 430 254T409 157T368 72T303 11T206 -12ZM208 70Q243 70 266 92T304 150T326 223T336 295T339 346Q339
401 320 428T262 456Q227 456 203 434T165 378T144 306T134 236T131 185Q131 127 149 99T208 70ZM131 613Q136 641 149 666T185 707T236 723Q263 723 281 715T316 699T352 690Q366 690 377 698T393 723H453Q450 696 436 671T400 630T348 613Q321 613 302 621T267
638T232 646Q219 646 208 638T192 613H131Z" />
<glyph unicode="&#xf6;" horiz-adv-x="470" d="M206 -12Q122 -12 78 34T34 177Q34 221 40 270T61 367T101 453T167 515T263 538Q348 538 392 491T436 347Q436 303 430 254T409 157T368 72T303 11T206 -12ZM208 70Q243 70 266 92T304 150T326 223T336 295T339 346Q339
401 320 428T262 456Q227 456 203 434T165 378T144 306T134 236T131 185Q131 127 149 99T208 70ZM318 624L333 723H424L409 624H318ZM160 624L175 723H266L251 624H160Z" />
<glyph unicode="&#xf7;" horiz-adv-x="549" d="M33 210L45 300H514L502 210H33ZM199 48L212 144H303L290 48H199ZM244 366L257 463H348L334 366H244Z" />
<glyph unicode="&#xf8;" horiz-adv-x="470" d="M206 -12Q122 -12 78 34T34 177Q34 221 40 270T61 367T101 453T167 515T263 538Q348 538 392 491T436 347Q436 303 430 254T409 157T368 72T303 11T206 -12ZM208 70Q243 70 266 92T304 150T326 223T336 295T339 346Q339
401 320 428T262 456Q227 456 203 434T165 378T144 306T134 236T131 185Q131 127 149 99T208 70ZM34 -32L375 558H436L95 -32H34Z" />
<glyph unicode="&#xf9;" horiz-adv-x="470" d="M159 -12Q116 -12 90 5T53 50T41 111Q41 119 44 144T51 206T62 286T74 373T86 457T96 526H189Q185 499 180 462T169 383T158 300T148 224T140 166T137 137Q137 103 151 88T196 72Q241 72 272 114T313 225L354 526H448L374
0H299V74Q290 57 272 37T226 3T159 -12ZM259 591L169 720L170 723H269L337 591H259Z" />
<glyph unicode="&#xfa;" horiz-adv-x="470" d="M159 -12Q116 -12 90 5T53 50T41 111Q41 119 44 144T51 206T62 286T74 373T86 457T96 526H189Q185 499 180 462T169 383T158 300T148 224T140 166T137 137Q137 103 151 88T196 72Q241 72 272 114T313 225L354 526H448L374
0H299V74Q290 57 272 37T226 3T159 -12ZM218 591L322 723H421L422 720L296 591H218Z" />
<glyph unicode="&#xfb;" horiz-adv-x="470" d="M159 -12Q116 -12 90 5T53 50T41 111Q41 119 44 144T51 206T62 286T74 373T86 457T96 526H189Q185 499 180 462T169 383T158 300T148 224T140 166T137 137Q137 103 151 88T196 72Q241 72 272 114T313 225L354 526H448L374
0H299V74Q290 57 272 37T226 3T159 -12ZM152 587L256 722H340L407 587H326L293 663L237 587H152Z" />
<glyph unicode="&#xfc;" horiz-adv-x="470" d="M159 -12Q116 -12 90 5T53 50T41 111Q41 119 44 144T51 206T62 286T74 373T86 457T96 526H189Q185 499 180 462T169 383T158 300T148 224T140 166T137 137Q137 103 151 88T196 72Q241 72 272 114T313 225L354 526H448L374
0H299V74Q290 57 272 37T226 3T159 -12ZM317 624L332 723H423L408 624H317ZM159 624L174 723H265L250 624H159Z" />
<glyph unicode="&#xfd;" horiz-adv-x="425" d="M45 -182Q22 -182 6 -180T-17 -174L-8 -106H28Q59 -106 88 -83T139 0L48 526H145L190 231Q192 217 194 201T198 170T201 140T204 117H208Q212 126 217 139T227 168T238 200T250 231L364 526H462L249 27Q225 -30 196
-77T130 -153T45 -182ZM202 591L306 723H405L406 720L280 591H202Z" />
<glyph unicode="&#xfe;" horiz-adv-x="470" d="M-1 -179L124 723H218L182 468Q207 504 237 521T301 538Q362 538 399 491T437 346Q437 224 407 145T330 27T233 -12Q197 -12 170 5T126 58L93 -179H-1ZM217 72Q248 72 270 92T305 145T327 215T338 288T342 348Q342
400 325 427T271 454Q241 454 220 433T184 380T161 309T150 237T147 178Q147 127 164 100T217 72Z" />
<glyph unicode="&#xff;" horiz-adv-x="425" d="M45 -182Q22 -182 6 -180T-17 -174L-8 -106H28Q59 -106 88 -83T139 0L48 526H145L190 231Q192 217 194 201T198 170T201 140T204 117H208Q212 126 217 139T227 168T238 200T250 231L364 526H462L249 27Q225 -30 196
-77T130 -153T45 -182ZM301 624L316 723H407L392 624H301ZM143 624L158 723H249L234 624H143Z" />
<glyph unicode="&#x2013;" horiz-adv-x="456" d="M-4 229L7 311H462L451 229H-4Z" />
<glyph unicode="&#x2014;" horiz-adv-x="820" d="M-4 229L7 311H826L815 229H-4Z" />
<glyph unicode="&#x2018;" horiz-adv-x="197" d="M78 435L93 542L166 686H226L168 552H207L190 435H78Z" />
<glyph unicode="&#x2019;" horiz-adv-x="197" d="M52 435L110 569H71L88 686H200L185 579L113 435H52Z" />
<glyph unicode="&#x201a;" horiz-adv-x="197" d="M10 -134L68 0H30L46 117H158L143 10L71 -134H10Z" />
<glyph unicode="&#x201c;" horiz-adv-x="316" d="M205 435L220 542L292 686H352L294 552H333L317 435H205ZM55 435L70 542L142 686H202L144 552H183L167 435H55Z" />
<glyph unicode="&#x201d;" horiz-adv-x="316" d="M202 435L260 569H222L238 686H350L335 579L263 435H202ZM52 435L110 569H71L88 686H200L185 579L113 435H52Z" />
<glyph unicode="&#x201e;" horiz-adv-x="316" d="M161 -134L219 0H180L196 117H308L293 10L221 -134H161ZM10 -134L68 0H30L46 117H158L143 10L71 -134H10Z" />
<glyph unicode="&#x2022;" horiz-adv-x="287" d="M146 228Q115 228 90 244T50 286T34 344Q34 376 49 402T90 443T146 459Q178 459 203 444T244 402T260 344Q260 313 245 287T204 244T146 228Z" />
<glyph unicode="&#x2039;" horiz-adv-x="273" d="M140 126L30 326L195 526H275L135 326L218 126H140Z" />
<glyph unicode="&#x203a;" horiz-adv-x="273" d="M18 126L158 326L75 526H152L264 326L98 126H18Z" />
</font>
</defs>
</svg>
