<?xml version="1.0" standalone="no"?>
<!DOCTYPE svg PUBLIC "-//W3C//DTD SVG 1.1//EN" "http://www.w3.org/Graphics/SVG/1.1/DTD/svg11.dtd">
<svg xmlns="http://www.w3.org/2000/svg">
<defs >
<font id="ArchivoNarrow" horiz-adv-x="470" ><font-face
    font-family="Archivo Narrow SemiBold"
    units-per-em="1000"
    panose-1="0 0 0 0 0 0 0 0 0 0"
    ascent="1035"
    descent="-312"
    alphabetic="0" />
<glyph unicode=" " horiz-adv-x="228" />
<glyph unicode="!" horiz-adv-x="258" d="M92 188L60 686H199L167 188H92ZM68 0V127H193V0H68Z" />
<glyph unicode="&quot;" horiz-adv-x="355" d="M229 407L207 539V686H315V539L294 407H229ZM64 407L42 539V686H151V539L130 407H64Z" />
<glyph unicode="#" horiz-adv-x="456" d="M27 0L70 190H6V271H88L120 417H45V498H138L183 697H267L222 498H302L347 697H431L386 498H448V417H368L336 271H408V190H318L275 0H191L234 190H154L111 0H27ZM172 271H252L284 417H204L172 271Z" />
<glyph unicode="$" horiz-adv-x="456" d="M199 -49V69Q147 74 112 96T58 153T40 231Q40 237 40 241T41 246H141V238Q141 201 158 181T199 154V309Q164 320 130 335T72 380T49 461Q49 530 91 569T199 616V723H252V617Q319 611 360 573T401 475Q401 468 401 461T400
453H300V463Q300 490 288 508T252 533V394Q280 386 308 376T361 349T399 305T413 235Q413 179 393 144T336 91T252 69V-49H199ZM252 152Q277 157 295 174T313 221Q313 249 296 264T252 291V152ZM199 412V533Q174 526 162 509T150 470Q150 447 163 434T199 412Z"
/>
<glyph unicode="%" horiz-adv-x="729" d="M118 0L536 686H617L198 0H118ZM173 337Q131 337 101 353T55 409T38 517Q38 587 54 626T101 681T173 698Q215 698 245 682T291 626T308 517Q308 448 292 409T245 353T173 337ZM173 405Q205 405 215 434T225 510V525Q225
571 215 600T173 630Q141 630 131 601T121 525V510Q121 464 131 435T173 405ZM560 -12Q518 -12 488 4T442 60T425 168Q425 238 441 277T488 332T560 349Q602 349 632 333T678 277T694 168Q694 99 678 60T632 4T560 -12ZM560 56Q592 56 602 85T612 161V176Q612 222
602 251T560 281Q528 281 518 252T507 176V161Q507 115 517 86T560 56Z" />
<glyph unicode="&amp;" horiz-adv-x="577" d="M440 0L167 375Q140 410 127 449T113 527Q113 574 132 612T190 674T282 698Q328 698 361 680T411 629T429 554Q429 508 408 466T350 391T266 341L230 422Q258 429 280 448T315 493T328 547Q328 572 316 589T277 607Q246
607 232 585T217 531Q217 499 229 465T266 409L562 0H440ZM239 -13Q174 -13 130 13T62 84T39 181Q39 227 57 272T110 354T197 413L237 329Q193 316 170 276T147 190Q147 145 171 112T246 79Q292 79 333 107T400 197T426 353H525Q525 260 500 191T434 76T341 9T239
-13Z" />
<glyph unicode="&apos;" horiz-adv-x="182" d="M58 407L36 539V686H145V539L124 407H58Z" />
<glyph unicode="(" horiz-adv-x="273" d="M188 -157Q113 -65 73 50T33 288Q33 411 73 527T188 735H258Q224 674 196 601T152 448T135 290Q135 212 151 132T196 -22T258 -157H188Z" />
<glyph unicode=")" horiz-adv-x="273" d="M15 -157Q50 -96 78 -22T122 132T138 290Q138 368 122 447T78 600T15 735H85Q160 643 200 527T240 288Q240 165 200 50T85 -157H15Z" />
<glyph unicode="*" horiz-adv-x="319" d="M122 394L132 492L51 434L14 499L103 540L14 582L51 645L132 588L122 686H197L187 589L268 645L305 582L216 540L305 499L268 434L187 492L197 394H122Z" />
<glyph unicode="+" horiz-adv-x="479" d="M190 0V206H36V304H190V511H287V304H442V206H287V0H190Z" />
<glyph unicode="," horiz-adv-x="228" d="M51 -145L101 0H51V127H177V11L117 -145H51Z" />
<glyph unicode="-" horiz-adv-x="273" d="M14 214V326H259V214H14Z" />
<glyph unicode="." horiz-adv-x="228" d="M51 0V127H177V0H51Z" />
<glyph unicode="/" horiz-adv-x="228" d="M1 -49L148 735H228L82 -49H1Z" />
<glyph unicode="0" horiz-adv-x="456" d="M228 -12Q183 -12 147 4T85 61T47 169T33 343Q33 448 46 516T85 625T146 681T228 698Q273 698 309 682T370 625T409 517T423 343Q423 238 410 170T371 61T309 5T228 -12ZM228 79Q262 79 280 105T305 183T312 308V378Q312
452 305 503T280 580T228 607Q194 607 176 581T151 503T144 378V308Q144 234 151 183T176 106T228 79Z" />
<glyph unicode="1" horiz-adv-x="456" d="M43 0V91H200V540H42V610Q71 613 109 623T186 650T258 686H308V91H452V0H43Z" />
<glyph unicode="2" horiz-adv-x="456" d="M35 0V20Q35 71 53 114T100 197Q131 237 166 275T233 351T285 431T306 521Q306 539 300 558T277 591T232 604Q190 604 172 571T154 491V450H44Q44 450 43 461T41 490Q41 564 68 609T139 676T236 698Q287 698 328 680T393
623T418 520Q418 471 402 427T358 342T299 265T238 197T188 135Q182 126 177 118T168 102H421V0H35Z" />
<glyph unicode="3" horiz-adv-x="456" d="M228 -12Q131 -12 80 44T28 194V209H139V191Q139 137 161 108T225 79Q264 79 288 106T312 190Q312 235 299 259T265 293T219 303H178V394H221Q254 394 277 421T300 505Q300 558 279 582T226 607Q192 607 172 581T151 501V485H40V510Q40
567 64 609T129 675T225 698Q308 698 359 650T411 510Q411 449 386 414T322 356V352Q366 336 394 294T423 184Q423 123 398 79T329 12T228 -12Z" />
<glyph unicode="4" horiz-adv-x="456" d="M265 0V160H12V248Q48 313 80 388T140 542T187 698H294Q280 630 255 561T201 428T147 319T107 251H265V426Q277 452 288 481T308 540T324 596H372V251H442V160H372V0H265Z" />
<glyph unicode="5" horiz-adv-x="456" d="M232 -12Q142 -12 88 48T33 213H145Q145 152 168 115T232 78Q271 78 295 115T319 224Q319 288 297 322T239 356Q209 356 189 338T155 291L52 306L75 686H401V584H169L158 406Q174 419 200 432T264 446Q311 446 348 422T407
349T430 224Q430 111 377 50T232 -12Z" />
<glyph unicode="6" horiz-adv-x="456" d="M237 -12Q174 -12 128 19T58 123T33 323Q33 466 56 548T124 664T229 698Q292 698 330 669T387 589T405 475H295Q295 537 279 572T225 607Q191 607 174 578T151 497T144 373Q162 401 191 416T255 431Q311 431 348 402T404
323T423 210Q423 142 399 92T333 15T237 -12ZM232 79Q273 79 292 117T312 210Q312 267 293 304T232 342Q191 342 171 305T151 210Q151 155 171 117T232 79Z" />
<glyph unicode="7" horiz-adv-x="456" d="M106 0Q106 85 123 166T170 324T236 465T309 584H26V686H430V615Q395 563 359 499T293 361T243 210T224 51Q224 37 224 28T225 0H106Z" />
<glyph unicode="8" horiz-adv-x="456" d="M228 -12Q159 -12 117 15T54 87T33 188Q33 244 54 286T121 352Q84 377 66 417T47 507Q47 560 67 603T128 672T228 698Q288 698 328 672T388 603T409 507Q409 458 391 418T334 352Q381 329 402 287T423 188Q423 133 403
88T340 15T228 -12ZM228 79Q269 79 290 108T312 192Q312 246 291 275T228 305Q187 305 166 276T144 192Q144 138 165 109T228 79ZM228 396Q262 396 281 423T301 501Q301 553 282 580T228 607Q194 607 175 580T156 501Q156 450 175 423T228 396Z" />
<glyph unicode="9" horiz-adv-x="456" d="M228 -12Q166 -12 127 17T70 97T51 211H161Q161 149 177 114T232 79Q266 79 283 108T305 189T312 312Q294 286 265 271T201 255Q145 255 108 284T52 363T33 476Q33 545 57 594T124 671T219 698Q283 698 328 667T398 563T423
363Q423 220 400 138T333 22T228 -12ZM224 344Q265 344 285 381T305 476Q305 531 285 569T224 607Q183 607 164 569T144 476Q144 419 163 382T224 344Z" />
<glyph unicode=":" horiz-adv-x="258" d="M58 399V526H183V399H58ZM58 0V127H183V0H58Z" />
<glyph unicode=";" horiz-adv-x="258" d="M57 -145L107 0H57V127H182V11L122 -145H57ZM58 399V526H183V399H58Z" />
<glyph unicode="&lt;" horiz-adv-x="479" d="M443 -5L37 198V318L443 522V413L132 259L443 104V-5Z" />
<glyph unicode="=" horiz-adv-x="479" d="M36 311V409H442V311H36ZM36 99V196H442V99H36Z" />
<glyph unicode="&gt;" horiz-adv-x="479" d="M37 -5V104L348 259L37 413V522L443 318V198L37 -5Z" />
<glyph unicode="?" horiz-adv-x="486" d="M199 191V239Q199 276 211 302T241 350T278 393T308 442T321 509Q321 518 318 533T308 564T285 590T244 601Q217 601 200 589T175 559T164 521T161 486Q161 474 161 467T162 459H49Q49 459 48 472T46 494Q46 550 68 596T137
670T252 698Q308 698 350 676T415 613T438 520Q438 465 426 430T394 371T356 327T324 283T311 224V191H199ZM193 0V127H318V0H193Z" />
<glyph unicode="@" horiz-adv-x="811" d="M385 -153Q276 -153 197 -110T75 26T32 262Q32 382 62 465T146 599T269 674T417 698Q521 698 603 660T732 538T779 321Q779 236 761 179T712 87T648 37T584 22Q537 22 516 39T485 85H480Q461 56 433 39T361 22Q344 22
324 27T284 46T252 87T240 156Q240 221 270 256T355 306T478 320V374Q478 403 467 421T419 440Q383 440 370 421T357 381V369H262Q261 373 261 377T261 389Q261 450 305 485T420 521Q499 521 537 485T576 382V143Q576 105 607 105Q631 105 655 124T695 191T712
322Q712 433 675 501T570 602T416 634Q270 634 185 542T100 261Q100 87 169 -1T385 -89Q407 -89 437 -85T496 -73T542 -57V-126Q522 -134 493 -140T435 -149T385 -153ZM397 104Q422 104 440 118T468 156T478 213V246Q441 246 410 240T359 215T340 164Q340 134 354
119T397 104Z" />
<glyph unicode="A" horiz-adv-x="577" d="M0 0L220 686H356L576 0H458L414 141H154L111 0H0ZM186 244H382L305 499Q301 514 296 535T289 571T286 586H282Q282 586 280 570T273 534T264 499L186 244Z" />
<glyph unicode="B" horiz-adv-x="577" d="M62 0V686H345Q398 686 439 665T504 606T528 517Q528 458 498 417T423 360V356Q474 340 509 295T544 183Q544 125 517 84T444 22T345 0H62ZM176 102H327Q370 102 398 127T427 198Q427 240 400 270T321 300H176V102ZM176
402H313Q360 402 385 430T411 495Q411 539 386 561T319 584H176V402Z" />
<glyph unicode="C" horiz-adv-x="592" d="M309 -12Q178 -12 108 75T37 343Q37 524 107 611T309 698Q380 698 436 670T524 584T556 433H439Q439 517 403 557T309 598Q231 598 193 539T155 368V318Q155 207 194 148T311 88Q372 88 408 128T444 251H556Q556 162 524
104T437 17T309 -12Z" />
<glyph unicode="D" horiz-adv-x="592" d="M63 0V686H283Q409 686 481 603T553 353Q553 177 481 89T283 0H63ZM178 102H272Q347 102 391 158T435 328V378Q435 481 391 532T272 584H178V102Z" />
<glyph unicode="E" horiz-adv-x="547" d="M63 0V686H496V584H178V402H452V300H178V102H502V0H63Z" />
<glyph unicode="F" horiz-adv-x="501" d="M63 0V686H464V584H178V394H425V291H178V0H63Z" />
<glyph unicode="G" horiz-adv-x="638" d="M306 -12Q178 -12 109 75T39 343Q39 524 114 611T325 698Q395 698 453 670T547 586T582 448H465Q465 524 424 561T322 598Q240 598 199 539T157 368V318Q157 206 198 147T321 88Q389 88 427 134T465 263V313L513 269H303V368H582V0H508L487
76Q454 32 408 10T306 -12Z" />
<glyph unicode="H" horiz-adv-x="592" d="M63 0V686H178V402H414V686H529V0H414V300H178V0H63Z" />
<glyph unicode="I" horiz-adv-x="228" d="M57 0V686H171V0H57Z" />
<glyph unicode="J" horiz-adv-x="440" d="M195 -12Q107 -12 59 33T10 163V213H124V168Q124 88 195 88Q264 88 264 168V686H379V163Q379 78 331 33T195 -12Z" />
<glyph unicode="K" horiz-adv-x="577" d="M63 0V686H178V331L437 686H564L360 408L571 0H442L286 316L178 188V0H63Z" />
<glyph unicode="L" horiz-adv-x="486" d="M63 0V686H178V106H464V0H63Z" />
<glyph unicode="M" horiz-adv-x="683" d="M56 0V686H220L318 283Q322 266 326 240T335 189T341 146T343 129H347Q347 129 349 146T355 190T362 241T370 283L467 686H627V0H519V458Q519 469 520 486T522 522T524 553T525 566H521Q519 558 516 545T510 516T504 486T497
459L387 0H287L176 460Q174 471 171 486T164 516T158 544T153 566H149Q149 566 150 553T152 521T154 485T155 458V0H56Z" />
<glyph unicode="N" horiz-adv-x="592" d="M63 0V686H164L390 290Q397 280 405 263T419 231T425 216L428 219Q428 219 428 233T428 263T427 287V686H529V0H429L201 398Q196 408 188 425T173 457T166 472L162 469Q162 469 162 457T164 428T165 401V0H63Z" />
<glyph unicode="O" horiz-adv-x="638" d="M319 -12Q188 -12 114 75T39 343Q39 524 113 611T319 698Q450 698 524 611T599 343Q599 163 525 76T319 -12ZM319 88Q398 88 439 147T481 318V368Q481 479 440 538T319 598Q241 598 199 539T157 368V318Q157 207 199 148T319 88Z" />
<glyph unicode="P" horiz-adv-x="547" d="M63 0V686H308Q378 686 425 660T496 588T520 482Q520 419 494 372T420 298T308 272H178V0H63ZM178 374H299Q348 374 375 403T402 482Q402 529 375 556T299 584H178V374Z" />
<glyph unicode="Q" horiz-adv-x="638" d="M437 -124L331 -12H319Q188 -12 114 75T39 343Q39 524 113 611T319 698Q450 698 524 611T599 343Q599 212 559 130T445 14L581 -124H437ZM319 88Q398 88 439 147T481 318V368Q481 479 440 538T319 598Q241 598 199 539T157
368V318Q157 207 199 148T319 88Z" />
<glyph unicode="R" horiz-adv-x="592" d="M63 0V686H347Q450 686 502 632T555 492Q555 429 524 383T438 316L572 0H447L328 292H178V0H63ZM178 394H334Q383 394 408 420T433 492Q433 534 409 559T337 584H178V394Z" />
<glyph unicode="S" horiz-adv-x="547" d="M269 -12Q206 -12 153 10T67 80T34 199Q34 204 34 210T35 220H153Q153 219 153 213T152 202Q152 148 184 118T271 88Q333 88 361 115T389 180Q389 216 371 237T322 273T255 299T182 324T115 360T67 418T48 509Q48 573
79 615T161 677T273 698Q334 698 383 678T463 613T493 499V487H376V498Q376 545 348 571T273 598Q224 598 195 577T166 517Q166 485 185 466T234 434T300 410T373 385T440 349T488 292T507 203Q507 125 477 78T392 10T269 -12Z" />
<glyph unicode="T" horiz-adv-x="501" d="M193 0V584H18V686H484V584H308V0H193Z" />
<glyph unicode="U" horiz-adv-x="592" d="M296 -12Q187 -12 126 46T64 218V686H178V219Q178 155 209 122T296 88Q352 88 383 121T414 219V686H529V218Q529 105 467 47T296 -12Z" />
<glyph unicode="V" horiz-adv-x="547" d="M212 0L3 686H123L276 161H280L433 686H544L335 0H212Z" />
<glyph unicode="W" horiz-adv-x="774" d="M156 0L3 686H119L209 246Q212 230 215 205T221 161T224 141H228Q228 141 230 159T235 202T243 246L324 686H462L545 246Q548 229 551 204T557 160T559 141H563Q563 141 565 159T571 203T579 246L670 686H770L618 0H494L404
447Q401 461 398 480T393 517T390 546T388 558H384Q384 558 383 546T379 515T374 479T368 447L280 0H156Z" />
<glyph unicode="X" horiz-adv-x="547" d="M1 0L204 359L20 686H150L276 455H279L406 686H526L341 363L545 0H416L270 266H267L121 0H1Z" />
<glyph unicode="Y" horiz-adv-x="547" d="M217 0V268L3 686H125L276 379H280L430 686H544L331 268V0H217Z" />
<glyph unicode="Z" horiz-adv-x="501" d="M17 0V45L314 584H38V686H473V640L175 102H480V0H17Z" />
<glyph unicode="[" horiz-adv-x="258" d="M49 -161V735H234V650H151V-76H234V-161H49Z" />
<glyph unicode="\" horiz-adv-x="228" d="M147 -49L1 735H81L228 -49H147Z" />
<glyph unicode="]" horiz-adv-x="258" d="M23 -161V-76H106V650H23V735H209V-161H23Z" />
<glyph unicode="^" horiz-adv-x="447" d="M22 294L172 686H279L429 294H326L225 579L126 294H22Z" />
<glyph unicode="_" horiz-adv-x="456" d="M0 -129V-66H455V-129H0Z" />
<glyph unicode="`" horiz-adv-x="0" d="M122 591L14 720L15 723H125L211 591H122Z" />
<glyph unicode="a" horiz-adv-x="456" d="M155 -12Q137 -12 114 -6T69 15T35 60T21 136Q21 208 55 247T148 301T284 317V377Q284 407 272 428T219 449Q179 449 165 428T150 384V370H45Q44 375 44 380T44 392Q44 460 92 499T219 538Q307 538 349 498T391 386V114Q391
95 400 87T419 79H446V4Q437 -1 421 -6T381 -11Q346 -11 323 8T291 57H286Q265 26 235 7T155 -12ZM194 79Q222 79 242 94T273 137T284 199V235Q242 235 208 228T152 201T131 145Q131 112 146 96T194 79Z" />
<glyph unicode="b" horiz-adv-x="486" d="M278 -12Q241 -12 211 7T160 64H155L144 0H57V723H164V473H169Q183 504 214 521T284 538Q330 538 366 510T423 421T445 264Q445 120 400 54T278 -12ZM249 85Q294 85 313 124T333 244V282Q333 362 314 401T249 441Q204
441 184 400T164 279V244Q164 166 184 126T249 85Z" />
<glyph unicode="c" horiz-adv-x="440" d="M232 -12Q132 -12 86 54T39 263Q39 405 86 471T229 538Q314 538 359 487T405 329H295Q295 389 280 418T229 447Q187 447 169 405T151 282V244Q151 163 170 121T232 79Q268 79 283 109T299 197H405Q405 130 385 84T327
13T232 -12Z" />
<glyph unicode="d" horiz-adv-x="486" d="M208 -12Q131 -12 86 54T41 264Q41 360 62 420T120 509T202 538Q241 538 272 521T317 473H322V723H429V0H342L330 64H325Q306 26 276 7T208 -12ZM237 85Q282 85 302 125T322 244V279Q322 358 302 399T237 441Q193 441
173 402T152 282V244Q152 164 172 125T237 85Z" />
<glyph unicode="e" horiz-adv-x="456" d="M238 -12Q138 -12 87 54T35 263Q35 405 86 471T235 538Q327 538 373 475T420 273V235H146Q147 158 168 118T239 77Q273 77 293 105T314 184H420Q420 87 369 38T238 -12ZM147 317H307Q307 380 290 414T235 449Q192 449
172 415T147 317Z" />
<glyph unicode="f" horiz-adv-x="258" d="M60 0V435H9V526H60V597Q60 630 70 661T106 711T176 731Q197 731 220 728T258 719V641H210Q167 641 167 596V526H258V435H167V0H60Z" />
<glyph unicode="g" horiz-adv-x="486" d="M136 -182Q82 -182 49 -148T15 -60Q15 -21 34 6T82 49Q63 61 52 81T40 128Q40 162 62 185T116 220Q86 243 70 278T53 360Q53 441 101 489T239 538Q287 538 323 522Q355 543 366 569T379 613H469Q469 560 446 527T383 482Q404
460 415 429T427 360Q427 278 379 230T241 181H189Q172 181 161 171T149 144Q149 129 160 119T186 108H357Q409 108 443 71T478 -24Q478 -71 457 -106T399 -162T314 -182H136ZM175 -98H314Q338 -98 354 -83T370 -44Q370 -20 356 -6T317 8H175Q151 8 137 -7T123
-44Q123 -67 137 -82T175 -98ZM239 263Q279 263 299 289T319 360Q319 405 299 430T239 456Q200 456 180 430T160 360Q160 314 180 289T239 263Z" />
<glyph unicode="h" horiz-adv-x="486" d="M57 0V723H164V470H168Q186 499 217 518T292 538Q353 538 391 501T429 372V0H322V349Q322 401 303 421T251 441Q215 441 190 408T164 323V0H57Z" />
<glyph unicode="i" horiz-adv-x="228" d="M60 0V526H168V0H60ZM59 615V723H168V615H59Z" />
<glyph unicode="j" horiz-adv-x="212" d="M44 -182Q23 -182 0 -178T-38 -170V-92H6Q53 -92 53 -44V526H160V-48Q160 -81 150 -112T114 -162T44 -182ZM51 615V723H160V615H51Z" />
<glyph unicode="k" horiz-adv-x="440" d="M56 0V723H163V305L318 526H433L278 311L441 0H322L211 226L163 169V0H56Z" />
<glyph unicode="l" horiz-adv-x="212" d="M53 0V723H160V0H53Z" />
<glyph unicode="m" horiz-adv-x="713" d="M57 0V526H144L155 462H161Q181 496 212 517T285 538Q324 538 353 520T397 461Q418 495 452 516T531 538Q568 538 597 522T642 471T659 372V0H552V349Q552 401 536 421T489 441Q458 441 435 411T411 328V0H305V349Q305
401 289 421T242 441Q209 441 187 409T164 323V0H57Z" />
<glyph unicode="n" horiz-adv-x="486" d="M57 0V526H144L155 462H161Q182 496 215 517T292 538Q353 538 391 501T429 372V0H322V349Q322 401 303 421T251 441Q215 441 190 408T164 323V0H57Z" />
<glyph unicode="o" horiz-adv-x="486" d="M243 -12Q143 -12 92 54T41 263Q41 405 92 471T243 538Q344 538 395 472T446 263Q446 121 395 55T243 -12ZM243 79Q292 79 313 121T334 244V282Q334 363 313 405T243 447Q195 447 174 405T152 282V244Q152 163 173 121T243 79Z" />
<glyph unicode="p" horiz-adv-x="486" d="M57 -173V526H144L155 462H160Q180 500 210 519T278 538Q355 538 400 472T445 262Q445 167 424 106T366 17T284 -12Q245 -12 214 5T169 51H164V-173H57ZM249 85Q294 85 313 124T333 244V282Q333 362 314 401T249 441Q204
441 184 401T164 282V245Q164 167 184 126T249 85Z" />
<glyph unicode="q" horiz-adv-x="486" d="M322 -173V51H317Q303 22 272 5T202 -12Q157 -12 120 16T62 106T41 262Q41 406 86 472T208 538Q245 538 275 519T325 462H330L342 526H429V-173H322ZM237 85Q282 85 302 126T322 245V282Q322 360 302 400T237 441Q193
441 173 402T152 282V244Q152 164 172 125T237 85Z" />
<glyph unicode="r" horiz-adv-x="303" d="M57 0V526H144L157 452H163Q173 484 193 511T253 538Q274 538 286 534T299 530V425H262Q236 425 214 414T178 376T164 303V0H57Z" />
<glyph unicode="s" horiz-adv-x="440" d="M216 -12Q156 -12 115 9T54 67T33 151Q33 157 33 161T34 166H144V158Q144 114 168 96T220 77Q247 77 270 92T294 141Q294 171 276 187T229 212T168 231T108 257T61 302T42 381Q42 433 65 468T130 520T222 538Q272 538
310 520T369 470T391 395Q391 388 391 381T390 373H281V377Q280 411 265 430T217 449Q195 449 181 441T159 419T152 390Q152 364 170 350T216 327T277 309T338 284T385 237T403 155Q403 94 379 58T312 5T216 -12Z" />
<glyph unicode="t" horiz-adv-x="258" d="M175 -11Q131 -11 106 8T71 58T61 123V435H11V526H61L79 673H168V526H242V435H168V124Q168 79 212 79H242V1Q230 -3 211 -7T175 -11Z" />
<glyph unicode="u" horiz-adv-x="486" d="M193 -12Q133 -12 95 25T57 154V526H164V177Q164 125 182 105T234 85Q271 85 296 117T322 202V526H429V0H342L330 64H324Q304 30 271 9T193 -12Z" />
<glyph unicode="v" horiz-adv-x="440" d="M165 0L6 526H120L189 286Q194 271 199 248T209 202T217 160T223 137H227Q229 142 232 160T239 201T249 247T259 287L327 526H435L276 0H165Z" />
<glyph unicode="w" horiz-adv-x="622" d="M130 0L1 526H111L166 283Q173 252 178 217T185 157T187 131H191Q191 131 193 155T200 213T211 282L259 526H370L418 281Q422 262 425 237T432 187T436 147T438 131H442Q442 131 444 146T450 184T457 233T467 281L520
526H621L493 0H382L329 268Q324 295 321 324T315 374T313 395H308Q308 395 307 375T302 325T293 268L241 0H130Z" />
<glyph unicode="x" horiz-adv-x="440" d="M5 0L158 270L16 526H139L222 364H226L311 526H427L284 274L435 0H312L219 180H215L120 0H5Z" />
<glyph unicode="y" horiz-adv-x="440" d="M113 -182Q84 -182 65 -179T42 -173V-93H87Q116 -93 140 -72T176 0L6 526H120L203 256Q207 242 211 223T220 185T226 152T230 134H234Q236 138 238 151T243 183T251 221T259 256L327 526H435L294 27Q278 -30 255 -77T197
-153T113 -182Z" />
<glyph unicode="z" horiz-adv-x="410" d="M21 0V47L234 435H34V526H380V480L166 91H389V0H21Z" />
<glyph unicode="{" horiz-adv-x="304" d="M283 -159Q235 -159 194 -148T126 -106T100 -11V183Q100 217 75 230T23 243V333Q50 333 75 346T100 393V587Q100 650 126 682T193 724T283 735V665Q266 665 248 660T217 642T204 600Q204 550 202 501T197 401Q196 350
174 322T96 293V283Q151 283 173 255T197 175Q199 124 201 75T204 -24Q204 -51 216 -65T246 -84T283 -89V-159Z" />
<glyph unicode="|" horiz-adv-x="224" d="M69 -173V723H155V-173H69Z" />
<glyph unicode="}" horiz-adv-x="304" d="M21 -159V-89Q39 -89 57 -84T88 -65T100 -24Q100 26 102 75T107 175Q109 226 131 254T208 283V293Q153 293 131 321T107 401Q105 452 103 501T100 600Q100 628 88 641T57 660T21 665V735Q70 735 111 725T178 682T204 587V393Q204
359 229 346T281 333V243Q254 243 229 230T204 183V-11Q204 -74 178 -105T111 -148T21 -159Z" />
<glyph unicode="~" horiz-adv-x="479" d="M30 202V312Q30 312 37 323T60 348T97 374T151 385Q183 385 211 370T267 340T328 324Q355 324 377 335T415 360T440 386T449 397V287Q449 287 442 276T419 251T382 225T328 214Q296 214 268 229T212 260T151 275Q124 275
102 264T64 239T39 213T30 202Z" />
<glyph unicode="&#xa0;" horiz-adv-x="228" />
<glyph unicode="&#xa1;" horiz-adv-x="273" d="M74 -160L105 338H180L213 -160H74ZM81 399V526H206V399H81Z" />
<glyph unicode="&#xa2;" horiz-adv-x="456" d="M208 -49V70Q124 79 84 145T43 343Q43 474 84 540T208 616V723H261V617Q336 610 376 559T416 409H313Q313 460 301 489T261 525V159Q291 167 304 196T317 277H416Q416 215 398 170T346 100T261 69V-49H208ZM208 162V524Q176
513 162 472T147 362V324Q147 256 161 216T208 162Z" />
<glyph unicode="&#xa3;" horiz-adv-x="456" d="M23 0V98H78V293H12V385H78V499Q78 599 124 648T252 698Q332 698 379 651T426 504V491H320V514Q320 561 302 584T252 607Q221 607 204 586T186 522V385H310V293H185L175 98H422V0H23Z" />
<glyph unicode="&#xa4;" horiz-adv-x="456" d="M228 104Q191 104 158 117T98 155L56 112L-1 169L49 219Q35 245 27 276T18 342Q18 375 26 406T48 464L-1 514L55 571L97 529Q124 554 157 567T228 581Q265 581 298 567T358 529L400 571L456 514L407 465Q422 438
430 407T438 342Q438 308 430 277T407 218L456 169L400 112L357 155Q331 131 298 118T228 104ZM228 187Q264 187 293 208T340 264T358 342Q358 386 341 421T294 477T228 498Q192 498 162 477T115 421T97 342Q97 299 114 264T162 208T228 187Z" />
<glyph unicode="&#xa5;" horiz-adv-x="456" d="M173 0V158H27V234H173V304H27V380H140L3 686H122L230 413H234L341 686H452L316 380H429V303H283V234H429V158H283V0H173Z" />
<glyph unicode="&#xa6;" horiz-adv-x="224" d="M69 348V723H155V348H69ZM69 -173V202H155V-173H69Z" />
<glyph unicode="&#xa7;" horiz-adv-x="456" d="M229 -182Q179 -182 141 -164T82 -114T60 -39Q60 -32 60 -25T61 -17H171Q171 -56 187 -74T234 -93Q257 -93 271 -85T292 -63T299 -34Q299 1 281 23T235 62T174 95T113 133T66 188T48 271Q48 314 66 350T114 411Q91
433 76 464T60 541Q60 593 83 628T146 680T240 698Q290 698 328 680T387 630T409 555Q409 548 409 541T408 533H298Q298 572 282 590T235 609Q213 609 199 601T177 579T170 550Q170 516 188 493T234 454T295 421T356 383T403 328T421 245Q421 202 403 166T355 105Q379
83 394 52T409 -25Q409 -76 386 -111T323 -164T229 -182ZM290 149Q302 162 309 178T316 215Q316 257 296 282T244 327T178 366Q167 354 160 338T153 301Q153 260 173 234T225 188T290 149Z" />
<glyph unicode="&#xa8;" horiz-adv-x="0" d="M166 619V723H262V619H166ZM0 619V723H96V619H0Z" />
<glyph unicode="&#xa9;" horiz-adv-x="604" d="M302 -12Q214 -12 150 32T52 155T18 343Q18 451 52 531T150 654T302 698Q391 698 454 655T551 531T586 343Q586 235 552 156T454 32T302 -12ZM304 136Q227 136 186 187T144 345Q144 451 185 503T304 555Q367 555
408 517T450 398H373Q373 443 355 465T304 488Q262 488 242 455T222 360V331Q222 270 243 237T306 203Q337 203 356 224T376 291H450Q450 212 409 174T304 136ZM302 40Q374 40 426 77T506 183T534 343Q534 435 506 503T426 608T302 646Q230 646 178 609T98 503T70
343Q70 252 98 184T178 78T302 40Z" />
<glyph unicode="&#xaa;" horiz-adv-x="303" d="M107 363Q90 363 69 370T32 399T16 463Q16 512 38 538T100 575T190 586V625Q190 645 183 657T151 670Q126 670 117 657T107 630V620H33Q32 624 32 627T32 635Q32 682 64 708T150 734Q210 734 238 707T267 631V451Q267
439 273 434T286 428H304V373Q298 370 287 367T259 364Q236 364 221 376T199 409H196Q181 387 161 375T107 363ZM134 428Q160 428 175 449T190 505V529Q152 529 124 518T95 469Q95 449 104 439T134 428Z" />
<glyph unicode="&#xab;" horiz-adv-x="456" d="M341 126L203 326L341 526H425L316 326L425 126H341ZM169 126L31 326L169 526H253L143 326L253 126H169Z" />
<glyph unicode="&#xac;" horiz-adv-x="479" d="M344 190V353H32V460H442V190H344Z" />
<glyph unicode="&#xad;" horiz-adv-x="273" d="M14 214V326H259V214H14Z" />
<glyph unicode="&#xae;" horiz-adv-x="604" d="M302 -12Q214 -12 150 32T52 155T18 343Q18 451 52 531T150 654T302 698Q391 698 454 655T552 531T586 343Q586 235 552 156T455 32T302 -12ZM302 40Q374 40 426 77T506 183T534 343Q534 436 506 503T426 608T302
646Q230 646 178 609T98 504T70 343Q70 251 98 183T178 78T302 40ZM174 143V547H330Q380 547 411 514T443 426Q443 388 429 361T392 320L469 143H392L326 296H250V143H174ZM250 360H305Q336 360 350 375T365 421Q365 450 351 464T305 478H250V360Z" />
<glyph unicode="&#xaf;" horiz-adv-x="440" d="M98 600V682H351V600H98Z" />
<glyph unicode="&#xb0;" horiz-adv-x="400" d="M198 419Q160 419 128 437T77 488T58 558Q58 598 77 629T128 679T198 698Q237 698 268 680T319 630T338 558Q338 520 319 488T269 438T198 419ZM198 482Q230 482 252 504T274 559Q274 590 252 612T198 634Q166 634
144 612T121 558Q121 527 143 505T198 482Z" />
<glyph unicode="&#xb1;" horiz-adv-x="549" d="M225 138V315H71V412H225V589H322V412H477V315H322V138H225ZM71 0V96H477V0H71Z" />
<glyph unicode="&#xb2;" horiz-adv-x="273" d="M28 434V450Q28 493 54 527T109 592Q135 618 154 642T173 691Q173 710 166 723T137 736Q117 736 108 721T100 686V660H31Q31 660 30 668T28 685Q28 739 58 768T137 798Q184 798 213 772T243 696Q243 651 218 618T166
557Q150 540 138 526T120 496H248V434H28Z" />
<glyph unicode="&#xb3;" horiz-adv-x="273" d="M141 428Q83 428 54 455T24 536V547H95V534Q95 514 106 502T137 489Q157 489 170 501T183 538Q183 562 170 574T136 587H107V648H137Q154 648 165 662T177 699Q177 721 166 729T140 738Q123 738 112 727T101 697V677H31V702Q31
745 61 771T139 798Q187 798 217 775T248 703Q248 675 235 655T201 621Q225 609 239 587T254 534Q254 485 223 457T141 428Z" />
<glyph unicode="&#xb4;" horiz-adv-x="0" d="M0 591L86 723H196L197 720L89 591H0Z" />
<glyph unicode="&#xb5;" horiz-adv-x="486" d="M57 -173V526H164V174Q164 124 182 105T234 85Q271 85 296 117T322 202V526H429V0H342L330 64H324Q306 30 276 9T206 -12Q183 -12 164 -4V-173H57Z" />
<glyph unicode="&#xb6;" horiz-adv-x="451" d="M187 -173V250Q139 257 101 287T41 364T18 467Q18 528 43 577T113 656T210 686H439V615H391V-173H315V615H262V-173H187Z" />
<glyph unicode="&#xb7;" horiz-adv-x="228" d="M56 281V406H171V281H56Z" />
<glyph unicode="&#xb8;" horiz-adv-x="0" d="M84 -182Q38 -182 0 -174V-125H73Q90 -125 99 -120T109 -101Q109 -89 102 -83T75 -77H42L54 11H117L112 -34Q144 -36 167 -51T191 -101Q191 -134 173 -151T131 -175T84 -182Z" />
<glyph unicode="&#xb9;" horiz-adv-x="273" d="M28 434V498H102V701H27V746Q50 749 81 760T134 786H173V498H239V434H28Z" />
<glyph unicode="&#xba;" horiz-adv-x="299" d="M151 362Q83 362 49 407T14 548Q14 644 48 689T151 734Q219 734 253 689T288 548Q288 452 254 407T151 362ZM151 428Q182 428 195 455T209 535V561Q209 614 196 641T151 668Q120 668 107 641T94 561V535Q94 482 107
455T151 428Z" />
<glyph unicode="&#xbb;" horiz-adv-x="456" d="M203 126L313 326L203 526H287L425 326L287 126H203ZM31 126L140 326L31 526H115L253 326L115 126H31Z" />
<glyph unicode="&#xbc;" horiz-adv-x="683" d="M28 590V654H102V857H27V902Q50 905 81 916T134 942H173V654H239V590H28ZM114 -12L517 698H581L179 -12H114ZM563 0V80H423V129Q453 177 475 236T510 365H585Q576 324 561 281T527 202T493 140H563V207Q573 225 582
253T598 307H635V140H665V80H635V0H563Z" />
<glyph unicode="&#xbd;" horiz-adv-x="683" d="M28 590V654H102V857H27V902Q50 905 81 916T134 942H173V654H239V590H28ZM114 -12L517 698H581L179 -12H114ZM438 0V16Q438 59 464 93T519 158Q545 184 564 208T583 257Q583 276 576 289T547 302Q527 302 518 287T510
252V226H441Q441 226 440 234T438 251Q438 305 468 334T547 364Q594 364 623 338T653 262Q653 217 628 184T576 123Q560 106 548 92T530 62H658V0H438Z" />
<glyph unicode="&#xbe;" horiz-adv-x="683" d="M141 584Q83 584 54 611T24 692V703H95V690Q95 670 106 658T137 645Q157 645 170 657T183 694Q183 718 170 730T136 743H107V804H137Q154 804 165 818T177 855Q177 877 166 885T140 894Q123 894 112 883T101 853V833H31V858Q31
901 61 927T139 954Q187 954 217 931T248 859Q248 831 235 811T201 777Q225 765 239 743T254 690Q254 641 223 613T141 584ZM114 -12L517 698H581L179 -12H114ZM563 0V80H423V129Q453 177 475 236T510 365H585Q576 324 561 281T527 202T493 140H563V207Q573 225
582 253T598 307H635V140H665V80H635V0H563Z" />
<glyph unicode="&#xbf;" horiz-adv-x="501" d="M243 -172Q187 -172 145 -150T79 -87T56 5Q56 59 68 94T100 153T138 198T169 243T182 302V335H295V287Q295 250 283 224T253 175T216 132T185 83T173 16Q173 7 175 -7T186 -38T209 -64T251 -75Q278 -75 294 -63T318
-33T329 5T332 40Q332 52 332 59T331 67H445Q445 67 446 54T448 32Q448 -25 426 -71T358 -145T243 -172ZM176 399V526H301V399H176Z" />
<glyph unicode="&#xc0;" horiz-adv-x="577" d="M0 0L220 686H356L576 0H458L414 141H154L111 0H0ZM186 244H382L305 499Q301 514 296 535T289 571T286 586H282Q282 586 280 570T273 534T264 499L186 244ZM263 751L155 850L156 853H266L352 751H263Z" />
<glyph unicode="&#xc1;" horiz-adv-x="577" d="M0 0L220 686H356L576 0H458L414 141H154L111 0H0ZM186 244H382L305 499Q301 514 296 535T289 571T286 586H282Q282 586 280 570T273 534T264 499L186 244ZM216 751L285 853H405L406 850L315 751H216Z" />
<glyph unicode="&#xc2;" horiz-adv-x="577" d="M0 0L220 686H356L576 0H458L414 141H154L111 0H0ZM186 244H382L305 499Q301 514 296 535T289 571T286 586H282Q282 586 280 570T273 534T264 499L186 244ZM157 748L243 853H334L419 748H333L289 790L244 748H157Z" />
<glyph unicode="&#xc3;" horiz-adv-x="577" d="M0 0L220 686H356L576 0H458L414 141H154L111 0H0ZM186 244H382L305 499Q301 514 296 535T289 571T286 586H282Q282 586 280 570T273 534T264 499L186 244ZM143 749Q143 773 151 797T179 838T228 854Q249 854 268
847T305 831T342 823Q356 823 365 829T376 854H433Q433 831 425 807T398 766T348 749Q327 749 309 757T272 773T234 781Q221 781 212 774T200 749H143Z" />
<glyph unicode="&#xc4;" horiz-adv-x="577" d="M0 0L220 686H356L576 0H458L414 141H154L111 0H0ZM186 244H382L305 499Q301 514 296 535T289 571T286 586H282Q282 586 280 570T273 534T264 499L186 244ZM323 779V883H419V779H323ZM157 779V883H253V779H157Z" />
<glyph unicode="&#xc5;" horiz-adv-x="577" d="M0 0L220 686H356L576 0H458L414 141H154L111 0H0ZM186 244H382L305 499Q301 514 296 535T289 571T286 586H282Q282 586 280 570T273 534T264 499L186 244ZM288 721Q249 721 221 749T192 818Q192 858 220 885T288
913Q329 913 356 885T384 818Q384 778 356 750T288 721ZM288 774Q305 774 318 786T331 818Q331 836 318 848T288 861Q270 861 258 849T245 818Q245 799 257 787T288 774Z" />
<glyph unicode="&#xc6;" horiz-adv-x="820" d="M-6 0L263 686H773V584H428L472 402H729V300H496L543 102H779V0H449L416 141H156L103 0H-6ZM194 244H392L330 515Q328 524 326 534T322 553T319 566H315Q313 561 310 552T303 533T296 513L194 244Z" />
<glyph unicode="&#xc7;" horiz-adv-x="592" d="M309 -12Q178 -12 108 75T37 343Q37 524 107 611T309 698Q380 698 436 670T524 584T556 433H439Q439 517 403 557T309 598Q231 598 193 539T155 368V318Q155 207 194 148T311 88Q372 88 408 128T444 251H556Q556
162 524 104T437 17T309 -12ZM302 -182Q256 -182 218 -174V-125H291Q308 -125 317 -120T327 -101Q327 -89 320 -83T293 -77H260L272 11H335L330 -34Q362 -36 385 -51T409 -101Q409 -134 391 -151T349 -175T302 -182Z" />
<glyph unicode="&#xc8;" horiz-adv-x="547" d="M63 0V686H496V584H178V402H452V300H178V102H502V0H63ZM255 751L147 850L148 853H258L344 751H255Z" />
<glyph unicode="&#xc9;" horiz-adv-x="547" d="M63 0V686H496V584H178V402H452V300H178V102H502V0H63ZM208 751L277 853H397L398 850L307 751H208Z" />
<glyph unicode="&#xca;" horiz-adv-x="547" d="M63 0V686H496V584H178V402H452V300H178V102H502V0H63ZM149 748L235 853H326L411 748H325L281 790L236 748H149Z" />
<glyph unicode="&#xcb;" horiz-adv-x="547" d="M63 0V686H496V584H178V402H452V300H178V102H502V0H63ZM315 779V883H411V779H315ZM149 779V883H245V779H149Z" />
<glyph unicode="&#xcc;" horiz-adv-x="228" d="M57 0V686H171V0H57ZM89 751L-19 850L-18 853H92L178 751H89Z" />
<glyph unicode="&#xcd;" horiz-adv-x="228" d="M57 0V686H171V0H57ZM42 751L111 853H231L232 850L141 751H42Z" />
<glyph unicode="&#xce;" horiz-adv-x="228" d="M57 0V686H171V0H57ZM-18 748L68 853H159L244 748H158L114 790L69 748H-18Z" />
<glyph unicode="&#xcf;" horiz-adv-x="228" d="M57 0V686H171V0H57ZM148 779V883H244V779H148ZM-18 779V883H78V779H-18Z" />
<glyph unicode="&#xd0;" horiz-adv-x="592" d="M63 0V316H8V394H63V686H283Q409 686 481 603T553 353Q553 177 481 89T283 0H63ZM178 102H272Q347 102 391 158T435 328V378Q435 481 391 532T272 584H178V394H314V316H178V102Z" />
<glyph unicode="&#xd1;" horiz-adv-x="592" d="M63 0V686H164L390 290Q397 280 405 263T419 231T425 216L428 219Q428 219 428 233T428 263T427 287V686H529V0H429L201 398Q196 408 188 425T173 457T166 472L162 469Q162 469 162 457T164 428T165 401V0H63ZM151
749Q151 773 159 797T187 838T236 854Q257 854 276 847T313 831T350 823Q364 823 373 829T384 854H441Q441 831 433 807T406 766T356 749Q335 749 317 757T280 773T242 781Q229 781 220 774T208 749H151Z" />
<glyph unicode="&#xd2;" horiz-adv-x="638" d="M319 -12Q188 -12 114 75T39 343Q39 524 113 611T319 698Q450 698 524 611T599 343Q599 163 525 76T319 -12ZM319 88Q398 88 439 147T481 318V368Q481 479 440 538T319 598Q241 598 199 539T157 368V318Q157 207
199 148T319 88ZM294 751L186 850L187 853H297L383 751H294Z" />
<glyph unicode="&#xd3;" horiz-adv-x="638" d="M319 -12Q188 -12 114 75T39 343Q39 524 113 611T319 698Q450 698 524 611T599 343Q599 163 525 76T319 -12ZM319 88Q398 88 439 147T481 318V368Q481 479 440 538T319 598Q241 598 199 539T157 368V318Q157 207
199 148T319 88ZM247 751L316 853H436L437 850L346 751H247Z" />
<glyph unicode="&#xd4;" horiz-adv-x="638" d="M319 -12Q188 -12 114 75T39 343Q39 524 113 611T319 698Q450 698 524 611T599 343Q599 163 525 76T319 -12ZM319 88Q398 88 439 147T481 318V368Q481 479 440 538T319 598Q241 598 199 539T157 368V318Q157 207
199 148T319 88ZM187 748L273 853H364L449 748H363L319 790L274 748H187Z" />
<glyph unicode="&#xd5;" horiz-adv-x="638" d="M319 -12Q188 -12 114 75T39 343Q39 524 113 611T319 698Q450 698 524 611T599 343Q599 163 525 76T319 -12ZM319 88Q398 88 439 147T481 318V368Q481 479 440 538T319 598Q241 598 199 539T157 368V318Q157 207
199 148T319 88ZM174 749Q174 773 182 797T210 838T259 854Q280 854 299 847T336 831T373 823Q387 823 396 829T407 854H464Q464 831 456 807T429 766T379 749Q358 749 340 757T303 773T265 781Q252 781 243 774T231 749H174Z" />
<glyph unicode="&#xd6;" horiz-adv-x="638" d="M319 -12Q188 -12 114 75T39 343Q39 524 113 611T319 698Q450 698 524 611T599 343Q599 163 525 76T319 -12ZM319 88Q398 88 439 147T481 318V368Q481 479 440 538T319 598Q241 598 199 539T157 368V318Q157 207
199 148T319 88ZM353 779V883H449V779H353ZM187 779V883H283V779H187Z" />
<glyph unicode="&#xd7;" horiz-adv-x="479" d="M98 41L32 109L180 256L32 404L98 471L246 323L395 471L461 404L313 256L461 109L395 41L246 188L98 41Z" />
<glyph unicode="&#xd8;" horiz-adv-x="638" d="M43 -37L518 723H596L121 -37H43ZM319 -12Q188 -12 114 75T39 343Q39 524 113 611T319 698Q450 698 524 611T599 343Q599 163 525 76T319 -12ZM319 88Q398 88 439 147T481 318V368Q481 479 440 538T319 598Q241 598
199 539T157 368V318Q157 207 199 148T319 88Z" />
<glyph unicode="&#xd9;" horiz-adv-x="592" d="M296 -12Q187 -12 126 46T64 218V686H178V219Q178 155 209 122T296 88Q352 88 383 121T414 219V686H529V218Q529 105 467 47T296 -12ZM271 751L163 850L164 853H274L360 751H271Z" />
<glyph unicode="&#xda;" horiz-adv-x="592" d="M296 -12Q187 -12 126 46T64 218V686H178V219Q178 155 209 122T296 88Q352 88 383 121T414 219V686H529V218Q529 105 467 47T296 -12ZM224 751L293 853H413L414 850L323 751H224Z" />
<glyph unicode="&#xdb;" horiz-adv-x="592" d="M296 -12Q187 -12 126 46T64 218V686H178V219Q178 155 209 122T296 88Q352 88 383 121T414 219V686H529V218Q529 105 467 47T296 -12ZM164 748L250 853H341L426 748H340L296 790L251 748H164Z" />
<glyph unicode="&#xdc;" horiz-adv-x="592" d="M296 -12Q187 -12 126 46T64 218V686H178V219Q178 155 209 122T296 88Q352 88 383 121T414 219V686H529V218Q529 105 467 47T296 -12ZM330 779V883H426V779H330ZM164 779V883H260V779H164Z" />
<glyph unicode="&#xdd;" horiz-adv-x="547" d="M217 0V268L3 686H125L276 379H280L430 686H544L331 268V0H217ZM201 751L270 853H390L391 850L300 751H201Z" />
<glyph unicode="&#xde;" horiz-adv-x="547" d="M63 0V686H178V559H308Q378 559 425 533T496 461T520 355Q520 293 494 245T420 171T308 145H178V0H63ZM178 247H299Q348 247 375 276T402 355Q402 402 375 429T299 457H178V247Z" />
<glyph unicode="&#xdf;" horiz-adv-x="501" d="M43 0V519Q43 596 71 643T147 713T254 735Q310 735 354 713T423 649T449 548Q449 499 423 456T354 395V391Q388 379 414 352T455 289T470 214Q470 150 444 102T372 27T270 0H201V92H258Q287 92 310 109T347 154T361
215Q361 248 347 274T310 317T258 333H201V432H254Q278 432 297 447T328 489T340 545Q340 589 317 616T249 644Q205 644 178 613T150 525V0H43Z" />
<glyph unicode="&#xe0;" horiz-adv-x="456" d="M155 -12Q137 -12 114 -6T69 15T35 60T21 136Q21 208 55 247T148 301T284 317V377Q284 407 272 428T219 449Q179 449 165 428T150 384V370H45Q44 375 44 380T44 392Q44 460 92 499T219 538Q307 538 349 498T391 386V114Q391
95 400 87T419 79H446V4Q437 -1 421 -6T381 -11Q346 -11 323 8T291 57H286Q265 26 235 7T155 -12ZM194 79Q222 79 242 94T273 137T284 199V235Q242 235 208 228T152 201T131 145Q131 112 146 96T194 79ZM196 591L88 720L89 723H199L285 591H196Z" />
<glyph unicode="&#xe1;" horiz-adv-x="456" d="M155 -12Q137 -12 114 -6T69 15T35 60T21 136Q21 208 55 247T148 301T284 317V377Q284 407 272 428T219 449Q179 449 165 428T150 384V370H45Q44 375 44 380T44 392Q44 460 92 499T219 538Q307 538 349 498T391 386V114Q391
95 400 87T419 79H446V4Q437 -1 421 -6T381 -11Q346 -11 323 8T291 57H286Q265 26 235 7T155 -12ZM194 79Q222 79 242 94T273 137T284 199V235Q242 235 208 228T152 201T131 145Q131 112 146 96T194 79ZM156 591L242 723H352L353 720L245 591H156Z" />
<glyph unicode="&#xe2;" horiz-adv-x="456" d="M155 -12Q137 -12 114 -6T69 15T35 60T21 136Q21 208 55 247T148 301T284 317V377Q284 407 272 428T219 449Q179 449 165 428T150 384V370H45Q44 375 44 380T44 392Q44 460 92 499T219 538Q307 538 349 498T391 386V114Q391
95 400 87T419 79H446V4Q437 -1 421 -6T381 -11Q346 -11 323 8T291 57H286Q265 26 235 7T155 -12ZM194 79Q222 79 242 94T273 137T284 199V235Q242 235 208 228T152 201T131 145Q131 112 146 96T194 79ZM89 588L175 723H266L351 588H265L221 660L176 588H89Z" />
<glyph unicode="&#xe3;" horiz-adv-x="456" d="M155 -12Q137 -12 114 -6T69 15T35 60T21 136Q21 208 55 247T148 301T284 317V377Q284 407 272 428T219 449Q179 449 165 428T150 384V370H45Q44 375 44 380T44 392Q44 460 92 499T219 538Q307 538 349 498T391 386V114Q391
95 400 87T419 79H446V4Q437 -1 421 -6T381 -11Q346 -11 323 8T291 57H286Q265 26 235 7T155 -12ZM194 79Q222 79 242 94T273 137T284 199V235Q242 235 208 228T152 201T131 145Q131 112 146 96T194 79ZM60 607Q60 633 69 660T99 705T153 723Q178 723 198 715T238
697T280 688Q296 688 305 695T318 723H381Q381 697 372 670T342 625T287 607Q264 607 243 616T203 633T161 642Q146 642 136 634T123 607H60Z" />
<glyph unicode="&#xe4;" horiz-adv-x="456" d="M155 -12Q137 -12 114 -6T69 15T35 60T21 136Q21 208 55 247T148 301T284 317V377Q284 407 272 428T219 449Q179 449 165 428T150 384V370H45Q44 375 44 380T44 392Q44 460 92 499T219 538Q307 538 349 498T391 386V114Q391
95 400 87T419 79H446V4Q437 -1 421 -6T381 -11Q346 -11 323 8T291 57H286Q265 26 235 7T155 -12ZM194 79Q222 79 242 94T273 137T284 199V235Q242 235 208 228T152 201T131 145Q131 112 146 96T194 79ZM255 619V723H351V619H255ZM89 619V723H185V619H89Z" />
<glyph unicode="&#xe5;" horiz-adv-x="456" d="M155 -12Q137 -12 114 -6T69 15T35 60T21 136Q21 208 55 247T148 301T284 317V377Q284 407 272 428T219 449Q179 449 165 428T150 384V370H45Q44 375 44 380T44 392Q44 460 92 499T219 538Q307 538 349 498T391 386V114Q391
95 400 87T419 79H446V4Q437 -1 421 -6T381 -11Q346 -11 323 8T291 57H286Q265 26 235 7T155 -12ZM194 79Q222 79 242 94T273 137T284 199V235Q242 235 208 228T152 201T131 145Q131 112 146 96T194 79ZM221 561Q182 561 154 589T125 658Q125 698 153 725T221 753Q262
753 289 725T317 658Q317 618 289 590T221 561ZM221 610Q240 610 254 624T269 658Q269 678 255 691T221 705Q201 705 187 692T173 658Q173 638 187 624T221 610Z" />
<glyph unicode="&#xe6;" horiz-adv-x="729" d="M190 -12Q168 -12 142 -6T92 15T53 60T38 136Q38 208 72 247T165 301T301 317V377Q301 407 289 428T236 449Q196 449 182 428T167 384V370H62Q61 375 61 380T61 392Q61 460 109 499T236 538Q282 538 316 524T371
485Q419 538 501 538Q593 538 639 475T686 273V235H412Q413 158 434 118T505 77Q539 77 559 105T580 184H686Q686 87 635 38T504 -12Q451 -12 412 6T346 62Q318 29 280 9T190 -12ZM211 79Q239 79 259 94T290 135T301 196V235Q259 235 225 228T169 201T148 145Q148
112 163 96T211 79ZM413 317H573Q573 380 556 414T501 449Q458 449 438 415T413 317Z" />
<glyph unicode="&#xe7;" horiz-adv-x="440" d="M232 -12Q132 -12 86 54T39 263Q39 405 86 471T229 538Q314 538 359 487T405 329H295Q295 389 280 418T229 447Q187 447 169 405T151 282V244Q151 163 170 121T232 79Q268 79 283 109T299 197H405Q405 130 385 84T327
13T232 -12ZM220 -182Q174 -182 136 -174V-125H209Q226 -125 235 -120T245 -101Q245 -89 238 -83T211 -77H178L190 11H253L248 -34Q280 -36 303 -51T327 -101Q327 -134 309 -151T267 -175T220 -182Z" />
<glyph unicode="&#xe8;" horiz-adv-x="456" d="M238 -12Q138 -12 87 54T35 263Q35 405 86 471T235 538Q327 538 373 475T420 273V235H146Q147 158 168 118T239 77Q273 77 293 105T314 184H420Q420 87 369 38T238 -12ZM147 317H307Q307 380 290 414T235 449Q192
449 172 415T147 317ZM203 591L95 720L96 723H206L292 591H203Z" />
<glyph unicode="&#xe9;" horiz-adv-x="456" d="M238 -12Q138 -12 87 54T35 263Q35 405 86 471T235 538Q327 538 373 475T420 273V235H146Q147 158 168 118T239 77Q273 77 293 105T314 184H420Q420 87 369 38T238 -12ZM147 317H307Q307 380 290 414T235 449Q192
449 172 415T147 317ZM163 591L249 723H359L360 720L252 591H163Z" />
<glyph unicode="&#xea;" horiz-adv-x="456" d="M238 -12Q138 -12 87 54T35 263Q35 405 86 471T235 538Q327 538 373 475T420 273V235H146Q147 158 168 118T239 77Q273 77 293 105T314 184H420Q420 87 369 38T238 -12ZM147 317H307Q307 380 290 414T235 449Q192
449 172 415T147 317ZM96 588L182 723H273L358 588H272L228 660L183 588H96Z" />
<glyph unicode="&#xeb;" horiz-adv-x="456" d="M238 -12Q138 -12 87 54T35 263Q35 405 86 471T235 538Q327 538 373 475T420 273V235H146Q147 158 168 118T239 77Q273 77 293 105T314 184H420Q420 87 369 38T238 -12ZM147 317H307Q307 380 290 414T235 449Q192
449 172 415T147 317ZM262 619V723H358V619H262ZM96 619V723H192V619H96Z" />
<glyph unicode="&#xec;" horiz-adv-x="228" d="M60 0V526H168V0H60ZM345 591L237 720L238 723H348L434 591H345Z" />
<glyph unicode="&#xed;" horiz-adv-x="228" d="M60 0V526H168V0H60ZM49 591L135 723H245L246 720L138 591H49Z" />
<glyph unicode="&#xee;" horiz-adv-x="228" d="M60 0V526H168V0H60ZM238 588L324 723H415L500 588H414L370 660L325 588H238Z" />
<glyph unicode="&#xef;" horiz-adv-x="228" d="M60 0V526H168V0H60ZM404 619V723H500V619H404ZM238 619V723H334V619H238Z" />
<glyph unicode="&#xf0;" horiz-adv-x="486" d="M243 -12Q143 -12 92 54T41 263Q41 356 63 417T126 508T221 538Q233 538 246 536T270 529L272 532Q264 548 253 565T228 600L103 589V658L177 665Q163 680 150 694T126 719L128 723H241Q252 713 264 701T289 675L414
686V618L341 611Q385 548 415 464T446 263Q446 121 395 55T243 -12ZM243 79Q292 79 313 121T334 244V282Q334 363 313 405T243 447Q195 447 174 405T152 282V244Q152 163 173 121T243 79Z" />
<glyph unicode="&#xf1;" horiz-adv-x="486" d="M57 0V526H144L155 462H161Q182 496 215 517T292 538Q353 538 391 501T429 372V0H322V349Q322 401 303 421T251 441Q215 441 190 408T164 323V0H57ZM82 607Q82 633 91 660T121 705T175 723Q200 723 220 715T260 697T302
688Q318 688 327 695T340 723H403Q403 697 394 670T364 625T309 607Q286 607 265 616T225 633T183 642Q168 642 158 634T145 607H82Z" />
<glyph unicode="&#xf2;" horiz-adv-x="486" d="M243 -12Q143 -12 92 54T41 263Q41 405 92 471T243 538Q344 538 395 472T446 263Q446 121 395 55T243 -12ZM243 79Q292 79 313 121T334 244V282Q334 363 313 405T243 447Q195 447 174 405T152 282V244Q152 163 173
121T243 79ZM217 591L109 720L110 723H220L306 591H217Z" />
<glyph unicode="&#xf3;" horiz-adv-x="486" d="M243 -12Q143 -12 92 54T41 263Q41 405 92 471T243 538Q344 538 395 472T446 263Q446 121 395 55T243 -12ZM243 79Q292 79 313 121T334 244V282Q334 363 313 405T243 447Q195 447 174 405T152 282V244Q152 163 173
121T243 79ZM177 591L263 723H373L374 720L266 591H177Z" />
<glyph unicode="&#xf4;" horiz-adv-x="486" d="M243 -12Q143 -12 92 54T41 263Q41 405 92 471T243 538Q344 538 395 472T446 263Q446 121 395 55T243 -12ZM243 79Q292 79 313 121T334 244V282Q334 363 313 405T243 447Q195 447 174 405T152 282V244Q152 163 173
121T243 79ZM111 588L197 723H288L373 588H287L243 660L198 588H111Z" />
<glyph unicode="&#xf5;" horiz-adv-x="486" d="M243 -12Q143 -12 92 54T41 263Q41 405 92 471T243 538Q344 538 395 472T446 263Q446 121 395 55T243 -12ZM243 79Q292 79 313 121T334 244V282Q334 363 313 405T243 447Q195 447 174 405T152 282V244Q152 163 173
121T243 79ZM82 607Q82 633 91 660T121 705T175 723Q200 723 220 715T260 697T302 688Q318 688 327 695T340 723H403Q403 697 394 670T364 625T309 607Q286 607 265 616T225 633T183 642Q168 642 158 634T145 607H82Z" />
<glyph unicode="&#xf6;" horiz-adv-x="486" d="M243 -12Q143 -12 92 54T41 263Q41 405 92 471T243 538Q344 538 395 472T446 263Q446 121 395 55T243 -12ZM243 79Q292 79 313 121T334 244V282Q334 363 313 405T243 447Q195 447 174 405T152 282V244Q152 163 173
121T243 79ZM277 619V723H373V619H277ZM111 619V723H207V619H111Z" />
<glyph unicode="&#xf7;" horiz-adv-x="549" d="M36 206V304H512V206H36ZM225 44V148H323V44H225ZM225 362V467H323V362H225Z" />
<glyph unicode="&#xf8;" horiz-adv-x="486" d="M243 -12Q143 -12 92 54T41 263Q41 405 92 471T243 538Q344 538 395 472T446 263Q446 121 395 55T243 -12ZM243 79Q292 79 313 121T334 244V282Q334 363 313 405T243 447Q195 447 174 405T152 282V244Q152 163 173
121T243 79ZM49 -32L370 558H438L117 -32H49Z" />
<glyph unicode="&#xf9;" horiz-adv-x="486" d="M193 -12Q133 -12 95 25T57 154V526H164V177Q164 125 182 105T234 85Q271 85 296 117T322 202V526H429V0H342L330 64H324Q304 30 271 9T193 -12ZM217 591L109 720L110 723H220L306 591H217Z" />
<glyph unicode="&#xfa;" horiz-adv-x="486" d="M193 -12Q133 -12 95 25T57 154V526H164V177Q164 125 182 105T234 85Q271 85 296 117T322 202V526H429V0H342L330 64H324Q304 30 271 9T193 -12ZM177 591L263 723H373L374 720L266 591H177Z" />
<glyph unicode="&#xfb;" horiz-adv-x="486" d="M193 -12Q133 -12 95 25T57 154V526H164V177Q164 125 182 105T234 85Q271 85 296 117T322 202V526H429V0H342L330 64H324Q304 30 271 9T193 -12ZM111 588L197 723H288L373 588H287L243 660L198 588H111Z" />
<glyph unicode="&#xfc;" horiz-adv-x="486" d="M193 -12Q133 -12 95 25T57 154V526H164V177Q164 125 182 105T234 85Q271 85 296 117T322 202V526H429V0H342L330 64H324Q304 30 271 9T193 -12ZM277 619V723H373V619H277ZM111 619V723H207V619H111Z" />
<glyph unicode="&#xfd;" horiz-adv-x="440" d="M113 -182Q84 -182 65 -179T42 -173V-93H87Q116 -93 140 -72T176 0L6 526H120L203 256Q207 242 211 223T220 185T226 152T230 134H234Q236 138 238 151T243 183T251 221T259 256L327 526H435L294 27Q278 -30 255
-77T197 -153T113 -182ZM155 591L241 723H351L352 720L244 591H155Z" />
<glyph unicode="&#xfe;" horiz-adv-x="486" d="M57 -173V723H164V471L166 470Q184 503 213 520T278 538Q355 538 400 472T445 262Q445 167 424 106T366 17T284 -12Q245 -12 214 5T169 51H164V-173H57ZM249 85Q294 85 313 124T333 244V282Q333 362 314 401T249
441Q204 441 184 401T164 282V245Q164 167 184 126T249 85Z" />
<glyph unicode="&#xff;" horiz-adv-x="440" d="M113 -182Q84 -182 65 -179T42 -173V-93H87Q116 -93 140 -72T176 0L6 526H120L203 256Q207 242 211 223T220 185T226 152T230 134H234Q236 138 238 151T243 183T251 221T259 256L327 526H435L294 27Q278 -30 255
-77T197 -153T113 -182ZM255 619V723H351V619H255ZM89 619V723H185V619H89Z" />
<glyph unicode="&#x2013;" horiz-adv-x="456" d="M0 225V315H456V225H0Z" />
<glyph unicode="&#x2014;" horiz-adv-x="820" d="M0 225V315H820V225H0Z" />
<glyph unicode="&#x2018;" horiz-adv-x="212" d="M44 414V530L104 686H169L119 541H169V414H44Z" />
<glyph unicode="&#x2019;" horiz-adv-x="212" d="M44 414L94 559H44V686H169V570L109 414H44Z" />
<glyph unicode="&#x201a;" horiz-adv-x="212" d="M42 -145L92 0H42V127H167V11L107 -145H42Z" />
<glyph unicode="&#x201c;" horiz-adv-x="363" d="M200 414V530L260 686H325L275 541H325V414H200ZM36 414V530L96 686H161L112 541H161V414H36Z" />
<glyph unicode="&#x201d;" horiz-adv-x="363" d="M202 414L252 559H202V686H327V570L267 414H202ZM38 414L88 559H38V686H163V570L103 414H38Z" />
<glyph unicode="&#x201e;" horiz-adv-x="363" d="M202 -145L252 0H202V127H327V11L267 -145H202ZM38 -145L88 0H38V127H163V11L103 -145H38Z" />
<glyph unicode="&#x2022;" horiz-adv-x="287" d="M143 224Q111 224 85 240T43 284T27 344Q27 377 42 403T84 446T143 463Q176 463 202 447T244 404T260 344Q260 312 244 285T202 241T143 224Z" />
<glyph unicode="&#x2039;" horiz-adv-x="273" d="M160 126L22 326L160 526H244L135 326L244 126H160Z" />
<glyph unicode="&#x203a;" horiz-adv-x="273" d="M29 126L138 326L29 526H113L251 326L113 126H29Z" />
</font>
</defs>
</svg>
